<svg width="640" height="380" viewBox="0 0 640 380" xmlns="http://www.w3.org/2000/svg" role="img" aria-labelledby="title desc">
  <title id="title">Roaming Roost mobile coop</title>
  <desc id="desc">A mobile geodesic pasture enclosure with wheels, dock sensor mast, and solar charging.</desc>
  <defs>
    <linearGradient id="sky" x1="0" x2="1" y1="0" y2="1">
      <stop offset="0" stop-color="#123d25"/>
      <stop offset="1" stop-color="#001b14"/>
    </linearGradient>
    <linearGradient id="pasture" x1="0" x2="1" y1="0" y2="1">
      <stop offset="0" stop-color="#2d6235"/>
      <stop offset="1" stop-color="#0f3a25"/>
    </linearGradient>
    <linearGradient id="dome" x1="0" x2="1" y1="0" y2="1">
      <stop offset="0" stop-color="#e6f2cf"/>
      <stop offset="1" stop-color="#89bf73"/>
    </linearGradient>
    <filter id="shadow" x="-20%" y="-20%" width="140%" height="140%">
      <feDropShadow dx="0" dy="10" stdDeviation="10" flood-color="#000" flood-opacity=".32"/>
    </filter>
  </defs>
  <rect width="640" height="380" rx="24" fill="url(#sky)"/>
  <path d="M0 252c78-26 145-32 222-16 87 18 148 4 220-16 80-22 143-10 198 12v148H0z" fill="url(#pasture)"/>
  <g opacity=".24" stroke="#c8b882" stroke-width="2">
    <path d="M38 292h564"/>
    <path d="M82 324h468"/>
    <path d="M128 262c40 16 78 16 116 0"/>
    <path d="M390 272c44 16 86 14 126-5"/>
  </g>
  <g filter="url(#shadow)">
    <path d="M118 254c34-102 116-166 212-166s177 64 213 166z" fill="rgba(230,242,207,.12)" stroke="#d7edb9" stroke-width="8"/>
    <path d="M166 254c26-73 80-127 164-166M232 254c11-80 43-132 98-166M330 88v166M428 254c-11-80-43-132-98-166M494 254c-26-73-80-127-164-166" stroke="#d7edb9" stroke-width="4" opacity=".9"/>
    <path d="M142 211h378M184 160h292" stroke="#d7edb9" stroke-width="4" opacity=".72"/>
    <rect x="176" y="205" width="308" height="70" rx="14" fill="url(#dome)" opacity=".92"/>
    <rect x="298" y="178" width="64" height="96" rx="8" fill="#09281c" stroke="#d7edb9" stroke-width="4"/>
    <path d="M316 226h28" stroke="#d7edb9" stroke-width="4" stroke-linecap="round"/>
    <circle cx="208" cy="292" r="28" fill="#101a16" stroke="#d7edb9" stroke-width="9"/>
    <circle cx="452" cy="292" r="28" fill="#101a16" stroke="#d7edb9" stroke-width="9"/>
    <circle cx="208" cy="292" r="8" fill="#6bbf59"/>
    <circle cx="452" cy="292" r="8" fill="#6bbf59"/>
  </g>
  <g transform="translate(494 92)">
    <rect x="24" y="35" width="9" height="118" rx="3" fill="#d7edb9"/>
    <rect x="-5" y="18" width="68" height="20" rx="5" fill="#d7edb9"/>
    <rect x="0" y="22" width="58" height="12" rx="3" fill="#1f5c3b"/>
    <circle cx="29" cy="0" r="17" fill="#6bbf59"/>
    <path d="M12 0h34M29-17v34" stroke="#001b14" stroke-width="5" stroke-linecap="round"/>
  </g>
  <g fill="#d0a34e">
    <circle cx="90" cy="292" r="7"/>
    <circle cx="106" cy="282" r="5"/>
    <circle cx="555" cy="286" r="7"/>
    <circle cx="572" cy="298" r="5"/>
  </g>
  <text x="42" y="52" fill="#e4e7e5" font-family="Arial, sans-serif" font-size="28" font-weight="700">Roaming Roost</text>
  <text x="42" y="82" fill="#c8b882" font-family="Arial, sans-serif" font-size="15">Mobile pasture rotation enclosure</text>
</svg>
