ISO-10303-21;
HEADER;
FILE_DESCRIPTION(('Open CASCADE Model'),'2;1');
FILE_NAME('Open CASCADE Shape Model','2026-09-10T23:36:49',('Author'),(
    'Open CASCADE'),'Open CASCADE STEP processor 7.9','Open CASCADE 7.9'
  ,'Unknown');
FILE_SCHEMA(('AUTOMOTIVE_DESIGN { 1 0 10303 214 1 1 1 1 }'));
ENDSEC;
DATA;
#1 = APPLICATION_PROTOCOL_DEFINITION('international standard',
  'automotive_design',2000,#2);
#2 = APPLICATION_CONTEXT(
  'core data for automotive mechanical design processes');
#3 = SHAPE_DEFINITION_REPRESENTATION(#4,#10);
#4 = PRODUCT_DEFINITION_SHAPE('','',#5);
#5 = PRODUCT_DEFINITION('design','',#6,#9);
#6 = PRODUCT_DEFINITION_FORMATION('','',#7);
#7 = PRODUCT('Open CASCADE STEP translator 7.9 8',
  'Open CASCADE STEP translator 7.9 8','',(#8));
#8 = PRODUCT_CONTEXT('',#2,'mechanical');
#9 = PRODUCT_DEFINITION_CONTEXT('part definition',#2,'design');
#10 = ADVANCED_BREP_SHAPE_REPRESENTATION('',(#11,#15),#957);
#11 = AXIS2_PLACEMENT_3D('',#12,#13,#14);
#12 = CARTESIAN_POINT('',(0.,0.,0.));
#13 = DIRECTION('',(0.,0.,1.));
#14 = DIRECTION('',(1.,0.,-0.));
#15 = MANIFOLD_SOLID_BREP('',#16);
#16 = CLOSED_SHELL('',(#17,#354,#559,#616,#791,#818,#845,#892,#899,#926,
    #953));
#17 = ADVANCED_FACE('',(#18),#31,.T.);
#18 = FACE_BOUND('',#19,.F.);
#19 = EDGE_LOOP('',(#20,#54,#77,#138,#212,#235,#262,#263,#353));
#20 = ORIENTED_EDGE('',*,*,#21,.F.);
#21 = EDGE_CURVE('',#22,#22,#24,.T.);
#22 = VERTEX_POINT('',#23);
#23 = CARTESIAN_POINT('',(17.,0.,0.));
#24 = SURFACE_CURVE('',#25,(#30,#42),.PCURVE_S1.);
#25 = CIRCLE('',#26,17.);
#26 = AXIS2_PLACEMENT_3D('',#27,#28,#29);
#27 = CARTESIAN_POINT('',(0.,0.,0.));
#28 = DIRECTION('',(0.,0.,1.));
#29 = DIRECTION('',(1.,0.,0.));
#30 = PCURVE('',#31,#36);
#31 = CYLINDRICAL_SURFACE('',#32,17.);
#32 = AXIS2_PLACEMENT_3D('',#33,#34,#35);
#33 = CARTESIAN_POINT('',(0.,0.,0.));
#34 = DIRECTION('',(-0.,-0.,-1.));
#35 = DIRECTION('',(1.,0.,0.));
#36 = DEFINITIONAL_REPRESENTATION('',(#37),#41);
#37 = LINE('',#38,#39);
#38 = CARTESIAN_POINT('',(-0.,0.));
#39 = VECTOR('',#40,1.);
#40 = DIRECTION('',(-1.,0.));
#41 = ( GEOMETRIC_REPRESENTATION_CONTEXT(2) 
PARAMETRIC_REPRESENTATION_CONTEXT() REPRESENTATION_CONTEXT('2D SPACE',''
  ) );
#42 = PCURVE('',#43,#48);
#43 = PLANE('',#44);
#44 = AXIS2_PLACEMENT_3D('',#45,#46,#47);
#45 = CARTESIAN_POINT('',(-1.287002477684E-15,1.236537197009E-15,0.));
#46 = DIRECTION('',(0.,0.,1.));
#47 = DIRECTION('',(1.,0.,-0.));
#48 = DEFINITIONAL_REPRESENTATION('',(#49),#53);
#49 = CIRCLE('',#50,17.);
#50 = AXIS2_PLACEMENT_2D('',#51,#52);
#51 = CARTESIAN_POINT('',(1.287002477684E-15,-1.236537197009E-15));
#52 = DIRECTION('',(1.,0.));
#53 = ( GEOMETRIC_REPRESENTATION_CONTEXT(2) 
PARAMETRIC_REPRESENTATION_CONTEXT() REPRESENTATION_CONTEXT('2D SPACE',''
  ) );
#54 = ORIENTED_EDGE('',*,*,#55,.T.);
#55 = EDGE_CURVE('',#22,#56,#58,.T.);
#56 = VERTEX_POINT('',#57);
#57 = CARTESIAN_POINT('',(17.,7.907704208737E-14,2.9));
#58 = SEAM_CURVE('',#59,(#63,#70),.PCURVE_S1.);
#59 = LINE('',#60,#61);
#60 = CARTESIAN_POINT('',(17.,0.,0.));
#61 = VECTOR('',#62,1.);
#62 = DIRECTION('',(0.,0.,1.));
#63 = PCURVE('',#31,#64);
#64 = DEFINITIONAL_REPRESENTATION('',(#65),#69);
#65 = LINE('',#66,#67);
#66 = CARTESIAN_POINT('',(-6.28318530718,0.));
#67 = VECTOR('',#68,1.);
#68 = DIRECTION('',(-0.,-1.));
#69 = ( GEOMETRIC_REPRESENTATION_CONTEXT(2) 
PARAMETRIC_REPRESENTATION_CONTEXT() REPRESENTATION_CONTEXT('2D SPACE',''
  ) );
#70 = PCURVE('',#31,#71);
#71 = DEFINITIONAL_REPRESENTATION('',(#72),#76);
#72 = LINE('',#73,#74);
#73 = CARTESIAN_POINT('',(-0.,0.));
#74 = VECTOR('',#75,1.);
#75 = DIRECTION('',(-0.,-1.));
#76 = ( GEOMETRIC_REPRESENTATION_CONTEXT(2) 
PARAMETRIC_REPRESENTATION_CONTEXT() REPRESENTATION_CONTEXT('2D SPACE',''
  ) );
#77 = ORIENTED_EDGE('',*,*,#78,.T.);
#78 = EDGE_CURVE('',#56,#79,#81,.T.);
#79 = VERTEX_POINT('',#80);
#80 = CARTESIAN_POINT('',(16.869795493722,2.1,5.));
#81 = SURFACE_CURVE('',#82,(#97,#115),.PCURVE_S1.);
#82 = B_SPLINE_CURVE_WITH_KNOTS('',7,(#83,#84,#85,#86,#87,#88,#89,#90,
    #91,#92,#93,#94,#95,#96),.UNSPECIFIED.,.F.,.F.,(8,6,8),(0.,
    0.45066601523,1.),.UNSPECIFIED.);
#83 = CARTESIAN_POINT('',(17.,1.672292810505E-15,2.9));
#84 = CARTESIAN_POINT('',(17.,0.255355713924,2.9));
#85 = CARTESIAN_POINT('',(16.995524964947,0.505205497674,2.936225621924)
  );
#86 = CARTESIAN_POINT('',(16.986922835724,0.743178519804,3.005866523137)
  );
#87 = CARTESIAN_POINT('',(16.975189934614,0.963734548822,3.104710922844)
  );
#88 = CARTESIAN_POINT('',(16.961767851574,1.162467421266,3.227231232855)
  );
#89 = CARTESIAN_POINT('',(16.948036605234,1.336507438031,3.366658957048)
  );
#90 = CARTESIAN_POINT('',(16.919159957776,1.665835138468,3.695986657484)
  );
#91 = CARTESIAN_POINT('',(16.903939263199,1.813508839895,3.895087052777)
  );
#92 = CARTESIAN_POINT('',(16.890730568357,1.92936701101,4.106111177573)
  );
#93 = CARTESIAN_POINT('',(16.880378457099,2.014986624838,4.324845812319)
  );
#94 = CARTESIAN_POINT('',(16.873327104909,2.071629233749,4.548264182119)
  );
#95 = CARTESIAN_POINT('',(16.869795493722,2.1,4.774015433914));
#96 = CARTESIAN_POINT('',(16.869795493722,2.1,5.));
#97 = PCURVE('',#31,#98);
#98 = DEFINITIONAL_REPRESENTATION('',(#99),#114);
#99 = B_SPLINE_CURVE_WITH_KNOTS('',7,(#100,#101,#102,#103,#104,#105,#106
    ,#107,#108,#109,#110,#111,#112,#113),.UNSPECIFIED.,.F.,.F.,(8,6,8),(
    0.,0.45066601523,1.),.UNSPECIFIED.);
#100 = CARTESIAN_POINT('',(0.,-2.9));
#101 = CARTESIAN_POINT('',(-1.502092434849E-02,-2.9));
#102 = CARTESIAN_POINT('',(-2.971797607891E-02,-2.936225621924));
#103 = CARTESIAN_POINT('',(-4.372189356418E-02,-3.005866523137));
#104 = CARTESIAN_POINT('',(-5.671140178259E-02,-3.104710922843));
#105 = CARTESIAN_POINT('',(-6.842697907725E-02,-3.227231232855));
#106 = CARTESIAN_POINT('',(-7.869604510061E-02,-3.366658957048));
#107 = CARTESIAN_POINT('',(-9.814259103912E-02,-3.695986657484));
#108 = CARTESIAN_POINT('',(-0.106874283555,-3.895087052777));
#109 = CARTESIAN_POINT('',(-0.113733280197,-4.106111177573));
#110 = CARTESIAN_POINT('',(-0.118806367578,-4.324845812319));
#111 = CARTESIAN_POINT('',(-0.122164006951,-4.548264182119));
#112 = CARTESIAN_POINT('',(-0.123845755375,-4.774015433914));
#113 = CARTESIAN_POINT('',(-0.123845755375,-5.));
#114 = ( GEOMETRIC_REPRESENTATION_CONTEXT(2) 
PARAMETRIC_REPRESENTATION_CONTEXT() REPRESENTATION_CONTEXT('2D SPACE',''
  ) );
#115 = PCURVE('',#116,#121);
#116 = CYLINDRICAL_SURFACE('',#117,2.1);
#117 = AXIS2_PLACEMENT_3D('',#118,#119,#120);
#118 = CARTESIAN_POINT('',(10.,0.,5.));
#119 = DIRECTION('',(-1.,-0.,-0.));
#120 = DIRECTION('',(0.,1.,0.));
#121 = DEFINITIONAL_REPRESENTATION('',(#122),#137);
#122 = B_SPLINE_CURVE_WITH_KNOTS('',7,(#123,#124,#125,#126,#127,#128,
    #129,#130,#131,#132,#133,#134,#135,#136),.UNSPECIFIED.,.F.,.F.,(8,6,
    8),(0.,0.45066601523,1.),.UNSPECIFIED.);
#123 = CARTESIAN_POINT('',(-4.712388980385,-7.));
#124 = CARTESIAN_POINT('',(-4.833986939396,-7.));
#125 = CARTESIAN_POINT('',(-4.952962897825,-6.995524964947));
#126 = CARTESIAN_POINT('',(-5.069220648919,-6.986922835724));
#127 = CARTESIAN_POINT('',(-5.182486198048,-6.975189934614));
#128 = CARTESIAN_POINT('',(-5.292287877643,-6.961767851574));
#129 = CARTESIAN_POINT('',(-5.397838070009,-6.948036605234));
#130 = CARTESIAN_POINT('',(-5.619618879734,-6.919159957776));
#131 = CARTESIAN_POINT('',(-5.736384040983,-6.903939263199));
#132 = CARTESIAN_POINT('',(-5.849402964898,-6.890730568357));
#133 = CARTESIAN_POINT('',(-5.959646671548,-6.880378457099));
#134 = CARTESIAN_POINT('',(-6.068073359888,-6.873327104909));
#135 = CARTESIAN_POINT('',(-6.175573609044,-6.869795493722));
#136 = CARTESIAN_POINT('',(-6.28318530718,-6.869795493722));
#137 = ( GEOMETRIC_REPRESENTATION_CONTEXT(2) 
PARAMETRIC_REPRESENTATION_CONTEXT() REPRESENTATION_CONTEXT('2D SPACE',''
  ) );
#138 = ORIENTED_EDGE('',*,*,#139,.T.);
#139 = EDGE_CURVE('',#79,#140,#142,.T.);
#140 = VERTEX_POINT('',#141);
#141 = CARTESIAN_POINT('',(17.,7.980051158553E-14,7.1));
#142 = SURFACE_CURVE('',#143,(#164,#188),.PCURVE_S1.);
#143 = B_SPLINE_CURVE_WITH_KNOTS('',7,(#144,#145,#146,#147,#148,#149,
    #150,#151,#152,#153,#154,#155,#156,#157,#158,#159,#160,#161,#162,
    #163),.UNSPECIFIED.,.F.,.F.,(8,6,6,8),(0.,0.506442623655,
    0.793514303216,1.),.UNSPECIFIED.);
#144 = CARTESIAN_POINT('',(16.869795493722,2.1,5.));
#145 = CARTESIAN_POINT('',(16.869795493722,2.1,5.209171625486));
#146 = CARTESIAN_POINT('',(16.872821225149,2.075693391604,5.418175040844
    ));
#147 = CARTESIAN_POINT('',(16.878864538349,2.027147035299,5.625308411066
    ));
#148 = CARTESIAN_POINT('',(16.887763425674,1.953857720332,5.828708770785
    ));
#149 = CARTESIAN_POINT('',(16.899189279712,1.854903362392,6.026058640929
    ));
#150 = CARTESIAN_POINT('',(16.912543108541,1.729093266383,6.214234981357
    ));
#151 = CARTESIAN_POINT('',(16.934977728807,1.488019310545,6.487679708959
    ));
#152 = CARTESIAN_POINT('',(16.943423771446,1.391579312459,6.582458212208
    ));
#153 = CARTESIAN_POINT('',(16.952004987238,1.285851059443,6.671968958746
    ));
#154 = CARTESIAN_POINT('',(16.960483464209,1.170883454142,6.755029182323
    ));
#155 = CARTESIAN_POINT('',(16.968581458993,1.046851751553,6.830384881617
    ));
#156 = CARTESIAN_POINT('',(16.975994438387,0.914078699251,6.896697985468
    ));
#157 = CARTESIAN_POINT('',(16.987031001652,0.671630370457,6.992690069523
    ));
#158 = CARTESIAN_POINT('',(16.991134447083,0.565927719798,7.027429677173
    ));
#159 = CARTESIAN_POINT('',(16.994586270216,0.456642196356,7.056012839629
    ));
#160 = CARTESIAN_POINT('',(16.997266434236,0.344550624963,7.077871522324
    ));
#161 = CARTESIAN_POINT('',(16.999086944752,0.230492857173,7.092608440413
    ));
#162 = CARTESIAN_POINT('',(17.,0.115346273742,7.1));
#163 = CARTESIAN_POINT('',(17.,3.214697847762E-16,7.1));
#164 = PCURVE('',#31,#165);
#165 = DEFINITIONAL_REPRESENTATION('',(#166),#187);
#166 = B_SPLINE_CURVE_WITH_KNOTS('',7,(#167,#168,#169,#170,#171,#172,
    #173,#174,#175,#176,#177,#178,#179,#180,#181,#182,#183,#184,#185,
    #186),.UNSPECIFIED.,.F.,.F.,(8,6,6,8),(0.,0.506442623655,
    0.793514303216,1.),.UNSPECIFIED.);
#167 = CARTESIAN_POINT('',(-0.123845755375,-5.));
#168 = CARTESIAN_POINT('',(-0.123845755375,-5.209171625486));
#169 = CARTESIAN_POINT('',(-0.122404919908,-5.418175040844));
#170 = CARTESIAN_POINT('',(-0.119527208365,-5.625308411066));
#171 = CARTESIAN_POINT('',(-0.115184434798,-5.828708770785));
#172 = CARTESIAN_POINT('',(-0.109325129372,-6.026058640929));
#173 = CARTESIAN_POINT('',(-0.101883587725,-6.214234981357));
#174 = CARTESIAN_POINT('',(-8.764149353402E-02,-6.487679708959));
#175 = CARTESIAN_POINT('',(-8.194692355165E-02,-6.582458212208));
#176 = CARTESIAN_POINT('',(-7.570737221655E-02,-6.671968958746));
#177 = CARTESIAN_POINT('',(-6.892657623449E-02,-6.755029182323));
#178 = CARTESIAN_POINT('',(-6.161554115728E-02,-6.830384881617));
#179 = CARTESIAN_POINT('',(-5.379361265255E-02,-6.896697985468));
#180 = CARTESIAN_POINT('',(-3.951717746715E-02,-6.992690069523));
#181 = CARTESIAN_POINT('',(-3.32948298235E-02,-7.027429677173));
#182 = CARTESIAN_POINT('',(-2.686333962198E-02,-7.056012839629));
#183 = CARTESIAN_POINT('',(-2.026819311715E-02,-7.077871522324));
#184 = CARTESIAN_POINT('',(-1.355840369535E-02,-7.092608440413));
#185 = CARTESIAN_POINT('',(-6.785074925975E-03,-7.1));
#186 = CARTESIAN_POINT('',(0.,-7.1));
#187 = ( GEOMETRIC_REPRESENTATION_CONTEXT(2) 
PARAMETRIC_REPRESENTATION_CONTEXT() REPRESENTATION_CONTEXT('2D SPACE',''
  ) );
#188 = PCURVE('',#116,#189);
#189 = DEFINITIONAL_REPRESENTATION('',(#190),#211);
#190 = B_SPLINE_CURVE_WITH_KNOTS('',7,(#191,#192,#193,#194,#195,#196,
    #197,#198,#199,#200,#201,#202,#203,#204,#205,#206,#207,#208,#209,
    #210),.UNSPECIFIED.,.F.,.F.,(8,6,6,8),(0.,0.506442623655,
    0.793514303216,1.),.UNSPECIFIED.);
#191 = CARTESIAN_POINT('',(0.,-6.869795493722));
#192 = CARTESIAN_POINT('',(-9.960553594562E-02,-6.869795493722));
#193 = CARTESIAN_POINT('',(-0.19913080302,-6.872821225149));
#194 = CARTESIAN_POINT('',(-0.29938059679,-6.878864538349));
#195 = CARTESIAN_POINT('',(-0.401066980842,-6.887763425674));
#196 = CARTESIAN_POINT('',(-0.504941590586,-6.899189279712));
#197 = CARTESIAN_POINT('',(-0.611776409058,-6.912543108541));
#198 = CARTESIAN_POINT('',(-0.785366401688,-6.934977728807));
#199 = CARTESIAN_POINT('',(-0.849590919475,-6.943423771446));
#200 = CARTESIAN_POINT('',(-0.915262984485,-6.952004987238));
#201 = CARTESIAN_POINT('',(-0.982432692968,-6.960483464209));
#202 = CARTESIAN_POINT('',(-1.051172503657,-6.968581458993));
#203 = CARTESIAN_POINT('',(-1.121582454395,-6.975994438387));
#204 = CARTESIAN_POINT('',(-1.245753786851,-6.987031001652));
#205 = CARTESIAN_POINT('',(-1.298643463742,-6.991134447083));
#206 = CARTESIAN_POINT('',(-1.352269267687,-6.994586270216));
#207 = CARTESIAN_POINT('',(-1.406453914431,-6.997266434236));
#208 = CARTESIAN_POINT('',(-1.461037831269,-6.999086944752));
#209 = CARTESIAN_POINT('',(-1.515869529775,-7.));
#210 = CARTESIAN_POINT('',(-1.570796326795,-7.));
#211 = ( GEOMETRIC_REPRESENTATION_CONTEXT(2) 
PARAMETRIC_REPRESENTATION_CONTEXT() REPRESENTATION_CONTEXT('2D SPACE',''
  ) );
#212 = ORIENTED_EDGE('',*,*,#213,.T.);
#213 = EDGE_CURVE('',#140,#214,#216,.T.);
#214 = VERTEX_POINT('',#215);
#215 = CARTESIAN_POINT('',(17.,0.,10.));
#216 = SEAM_CURVE('',#217,(#221,#228),.PCURVE_S1.);
#217 = LINE('',#218,#219);
#218 = CARTESIAN_POINT('',(17.,0.,0.));
#219 = VECTOR('',#220,1.);
#220 = DIRECTION('',(0.,0.,1.));
#221 = PCURVE('',#31,#222);
#222 = DEFINITIONAL_REPRESENTATION('',(#223),#227);
#223 = LINE('',#224,#225);
#224 = CARTESIAN_POINT('',(-6.28318530718,0.));
#225 = VECTOR('',#226,1.);
#226 = DIRECTION('',(-0.,-1.));
#227 = ( GEOMETRIC_REPRESENTATION_CONTEXT(2) 
PARAMETRIC_REPRESENTATION_CONTEXT() REPRESENTATION_CONTEXT('2D SPACE',''
  ) );
#228 = PCURVE('',#31,#229);
#229 = DEFINITIONAL_REPRESENTATION('',(#230),#234);
#230 = LINE('',#231,#232);
#231 = CARTESIAN_POINT('',(-0.,0.));
#232 = VECTOR('',#233,1.);
#233 = DIRECTION('',(-0.,-1.));
#234 = ( GEOMETRIC_REPRESENTATION_CONTEXT(2) 
PARAMETRIC_REPRESENTATION_CONTEXT() REPRESENTATION_CONTEXT('2D SPACE',''
  ) );
#235 = ORIENTED_EDGE('',*,*,#236,.T.);
#236 = EDGE_CURVE('',#214,#214,#237,.T.);
#237 = SURFACE_CURVE('',#238,(#243,#250),.PCURVE_S1.);
#238 = CIRCLE('',#239,17.);
#239 = AXIS2_PLACEMENT_3D('',#240,#241,#242);
#240 = CARTESIAN_POINT('',(0.,0.,10.));
#241 = DIRECTION('',(0.,0.,1.));
#242 = DIRECTION('',(1.,0.,0.));
#243 = PCURVE('',#31,#244);
#244 = DEFINITIONAL_REPRESENTATION('',(#245),#249);
#245 = LINE('',#246,#247);
#246 = CARTESIAN_POINT('',(-0.,-10.));
#247 = VECTOR('',#248,1.);
#248 = DIRECTION('',(-1.,0.));
#249 = ( GEOMETRIC_REPRESENTATION_CONTEXT(2) 
PARAMETRIC_REPRESENTATION_CONTEXT() REPRESENTATION_CONTEXT('2D SPACE',''
  ) );
#250 = PCURVE('',#251,#256);
#251 = PLANE('',#252);
#252 = AXIS2_PLACEMENT_3D('',#253,#254,#255);
#253 = CARTESIAN_POINT('',(-1.287002477684E-15,1.236537197009E-15,10.));
#254 = DIRECTION('',(0.,0.,1.));
#255 = DIRECTION('',(1.,0.,-0.));
#256 = DEFINITIONAL_REPRESENTATION('',(#257),#261);
#257 = CIRCLE('',#258,17.);
#258 = AXIS2_PLACEMENT_2D('',#259,#260);
#259 = CARTESIAN_POINT('',(1.287002477684E-15,-1.236537197009E-15));
#260 = DIRECTION('',(1.,0.));
#261 = ( GEOMETRIC_REPRESENTATION_CONTEXT(2) 
PARAMETRIC_REPRESENTATION_CONTEXT() REPRESENTATION_CONTEXT('2D SPACE',''
  ) );
#262 = ORIENTED_EDGE('',*,*,#213,.F.);
#263 = ORIENTED_EDGE('',*,*,#264,.T.);
#264 = EDGE_CURVE('',#140,#56,#265,.T.);
#265 = SURFACE_CURVE('',#266,(#293,#323),.PCURVE_S1.);
#266 = B_SPLINE_CURVE_WITH_KNOTS('',7,(#267,#268,#269,#270,#271,#272,
    #273,#274,#275,#276,#277,#278,#279,#280,#281,#282,#283,#284,#285,
    #286,#287,#288,#289,#290,#291,#292),.UNSPECIFIED.,.F.,.F.,(8,6,6,6,8
    ),(0.,0.245413444367,0.500053675063,0.754693175651,1.),
  .UNSPECIFIED.);
#267 = CARTESIAN_POINT('',(17.,-1.7763568394E-15,7.1));
#268 = CARTESIAN_POINT('',(17.,-0.27899941845,7.1));
#269 = CARTESIAN_POINT('',(16.994657900753,-0.550472901491,
    7.056755626913));
#270 = CARTESIAN_POINT('',(16.984493160459,-0.806637734836,
    6.974463131762));
#271 = CARTESIAN_POINT('',(16.970884385458,-1.041038338694,
    6.858790815705));
#272 = CARTESIAN_POINT('',(16.955713808497,-1.248771335965,
    6.716819137908));
#273 = CARTESIAN_POINT('',(16.940660624667,-1.426953058062,
    6.556945775955));
#274 = CARTESIAN_POINT('',(16.912543569717,-1.72908831076,6.214240602408
    ));
#275 = CARTESIAN_POINT('',(16.899189364119,-1.854903581117,
    6.026061333041));
#276 = CARTESIAN_POINT('',(16.887763039315,-1.953860779536,5.82870465797
    ));
#277 = CARTESIAN_POINT('',(16.878864306999,-2.027148891724,
    5.625301358331));
#278 = CARTESIAN_POINT('',(16.872821245869,-2.075693230289,
    5.418170904514));
#279 = CARTESIAN_POINT('',(16.869795493722,-2.1,5.209172225227));
#280 = CARTESIAN_POINT('',(16.869795493722,-2.1,4.790828374514));
#281 = CARTESIAN_POINT('',(16.872821225149,-2.075693391604,
    4.581824959155));
#282 = CARTESIAN_POINT('',(16.878864538349,-2.027147035299,
    4.374691588935));
#283 = CARTESIAN_POINT('',(16.887763425674,-1.953857720332,
    4.171291229214));
#284 = CARTESIAN_POINT('',(16.899189279712,-1.854903362392,
    3.973941359071));
#285 = CARTESIAN_POINT('',(16.912543108541,-1.729093266383,
    3.785765018643));
#286 = CARTESIAN_POINT('',(16.94065511345,-1.427012279514,3.443121397597
    ));
#287 = CARTESIAN_POINT('',(16.955709905447,-1.248826379458,
    3.283209514104));
#288 = CARTESIAN_POINT('',(16.970886704408,-1.041032242288,
    3.141179830402));
#289 = CARTESIAN_POINT('',(16.984500225935,-0.806547213729,
    3.025479805015));
#290 = CARTESIAN_POINT('',(16.994662851203,-0.550323989145,
    2.943204274695));
#291 = CARTESIAN_POINT('',(17.,-0.27887005422,2.9));
#292 = CARTESIAN_POINT('',(17.,-4.440892098501E-16,2.9));
#293 = PCURVE('',#31,#294);
#294 = DEFINITIONAL_REPRESENTATION('',(#295),#322);
#295 = B_SPLINE_CURVE_WITH_KNOTS('',7,(#296,#297,#298,#299,#300,#301,
    #302,#303,#304,#305,#306,#307,#308,#309,#310,#311,#312,#313,#314,
    #315,#316,#317,#318,#319,#320,#321),.UNSPECIFIED.,.F.,.F.,(8,6,6,6,8
    ),(0.,0.245413444367,0.500053675063,0.754693175651,1.),
  .UNSPECIFIED.);
#296 = CARTESIAN_POINT('',(-6.28318530718,-7.1));
#297 = CARTESIAN_POINT('',(-6.266773576683,-7.1));
#298 = CARTESIAN_POINT('',(-6.25080454024,-7.056755626913));
#299 = CARTESIAN_POINT('',(-6.235728845604,-6.974463131762));
#300 = CARTESIAN_POINT('',(-6.221920532851,-6.858790815705));
#301 = CARTESIAN_POINT('',(-6.209669694371,-6.716819137908));
#302 = CARTESIAN_POINT('',(-6.199151467225,-6.556945775955));
#303 = CARTESIAN_POINT('',(-6.181302012221,-6.214240602408));
#304 = CARTESIAN_POINT('',(-6.173860165468,-6.026061333041));
#305 = CARTESIAN_POINT('',(-6.168000691146,-5.82870465797));
#306 = CARTESIAN_POINT('',(-6.163657988682,-5.625301358331));
#307 = CARTESIAN_POINT('',(-6.160780396867,-5.418170904514));
#308 = CARTESIAN_POINT('',(-6.159339551804,-5.209172225227));
#309 = CARTESIAN_POINT('',(-6.159339551804,-4.790828374514));
#310 = CARTESIAN_POINT('',(-6.160780387272,-4.581824959155));
#311 = CARTESIAN_POINT('',(-6.163658098814,-4.374691588935));
#312 = CARTESIAN_POINT('',(-6.168000872382,-4.171291229214));
#313 = CARTESIAN_POINT('',(-6.173860177808,-3.973941359071));
#314 = CARTESIAN_POINT('',(-6.181301719454,-3.785765018643));
#315 = CARTESIAN_POINT('',(-6.199147968558,-3.443121397597));
#316 = CARTESIAN_POINT('',(-6.209666448956,-3.283209514104));
#317 = CARTESIAN_POINT('',(-6.221920902167,-3.141179830402));
#318 = CARTESIAN_POINT('',(-6.235734181254,-3.025479805015));
#319 = CARTESIAN_POINT('',(-6.250813299644,-2.943204274695));
#320 = CARTESIAN_POINT('',(-6.266781186343,-2.9));
#321 = CARTESIAN_POINT('',(-6.28318530718,-2.9));
#322 = ( GEOMETRIC_REPRESENTATION_CONTEXT(2) 
PARAMETRIC_REPRESENTATION_CONTEXT() REPRESENTATION_CONTEXT('2D SPACE',''
  ) );
#323 = PCURVE('',#116,#324);
#324 = DEFINITIONAL_REPRESENTATION('',(#325),#352);
#325 = B_SPLINE_CURVE_WITH_KNOTS('',7,(#326,#327,#328,#329,#330,#331,
    #332,#333,#334,#335,#336,#337,#338,#339,#340,#341,#342,#343,#344,
    #345,#346,#347,#348,#349,#350,#351),.UNSPECIFIED.,.F.,.F.,(8,6,6,6,8
    ),(0.,0.245413444367,0.500053675063,0.754693175651,1.),
  .UNSPECIFIED.);
#326 = CARTESIAN_POINT('',(-1.570796326795,-7.));
#327 = CARTESIAN_POINT('',(-1.703653192723,-7.));
#328 = CARTESIAN_POINT('',(-1.832926186709,-6.994657900753));
#329 = CARTESIAN_POINT('',(-1.958739998244,-6.984493160459));
#330 = CARTESIAN_POINT('',(-2.08092035924,-6.970884385458));
#331 = CARTESIAN_POINT('',(-2.199036875535,-6.955713808497));
#332 = CARTESIAN_POINT('',(-2.312254308597,-6.940660624667));
#333 = CARTESIAN_POINT('',(-2.529812676139,-6.912543569717));
#334 = CARTESIAN_POINT('',(-2.636650167406,-6.899189364119));
#335 = CARTESIAN_POINT('',(-2.740527905049,-6.887763039315));
#336 = CARTESIAN_POINT('',(-2.842215429384,-6.878864306999));
#337 = CARTESIAN_POINT('',(-2.94246380947,-6.872821245869));
#338 = CARTESIAN_POINT('',(-3.041986832053,-6.869795493722));
#339 = CARTESIAN_POINT('',(-3.241198189535,-6.869795493722));
#340 = CARTESIAN_POINT('',(-3.340723456609,-6.872821225149));
#341 = CARTESIAN_POINT('',(-3.44097325038,-6.878864538349));
#342 = CARTESIAN_POINT('',(-3.542659634432,-6.887763425674));
#343 = CARTESIAN_POINT('',(-3.646534244175,-6.899189279712));
#344 = CARTESIAN_POINT('',(-3.753369062648,-6.912543108541));
#345 = CARTESIAN_POINT('',(-3.970888355024,-6.94065511345));
#346 = CARTESIAN_POINT('',(-4.084120877435,-6.955709905447));
#347 = CARTESIAN_POINT('',(-4.202274905145,-6.970886704408));
#348 = CARTESIAN_POINT('',(-4.3244936731,-6.984500225935));
#349 = CARTESIAN_POINT('',(-4.450330044314,-6.994662851203));
#350 = CARTESIAN_POINT('',(-4.57959371647,-7.));
#351 = CARTESIAN_POINT('',(-4.712388980385,-7.));
#352 = ( GEOMETRIC_REPRESENTATION_CONTEXT(2) 
PARAMETRIC_REPRESENTATION_CONTEXT() REPRESENTATION_CONTEXT('2D SPACE',''
  ) );
#353 = ORIENTED_EDGE('',*,*,#55,.F.);
#354 = ADVANCED_FACE('',(#355,#358,#393,#428,#489,#524),#43,.F.);
#355 = FACE_BOUND('',#356,.F.);
#356 = EDGE_LOOP('',(#357));
#357 = ORIENTED_EDGE('',*,*,#21,.T.);
#358 = FACE_BOUND('',#359,.F.);
#359 = EDGE_LOOP('',(#360));
#360 = ORIENTED_EDGE('',*,*,#361,.T.);
#361 = EDGE_CURVE('',#362,#362,#364,.T.);
#362 = VERTEX_POINT('',#363);
#363 = CARTESIAN_POINT('',(-6.549747468306,-4.949747468306,0.));
#364 = SURFACE_CURVE('',#365,(#370,#381),.PCURVE_S1.);
#365 = CIRCLE('',#366,1.6);
#366 = AXIS2_PLACEMENT_3D('',#367,#368,#369);
#367 = CARTESIAN_POINT('',(-4.949747468306,-4.949747468306,0.));
#368 = DIRECTION('',(0.,0.,-1.));
#369 = DIRECTION('',(-1.,0.,0.));
#370 = PCURVE('',#43,#371);
#371 = DEFINITIONAL_REPRESENTATION('',(#372),#380);
#372 = ( BOUNDED_CURVE() B_SPLINE_CURVE(2,(#373,#374,#375,#376,#377,#378
,#379),.UNSPECIFIED.,.T.,.F.) B_SPLINE_CURVE_WITH_KNOTS((1,2,2,2,2,1),(
    -2.094395102393,0.,2.094395102393,4.188790204786,6.28318530718,
8.377580409573),.UNSPECIFIED.) CURVE() GEOMETRIC_REPRESENTATION_ITEM() 
RATIONAL_B_SPLINE_CURVE((1.,0.5,1.,0.5,1.,0.5,1.)) REPRESENTATION_ITEM(
  '') );
#373 = CARTESIAN_POINT('',(-6.549747468306,-4.949747468306));
#374 = CARTESIAN_POINT('',(-6.549747468306,-2.178466176196));
#375 = CARTESIAN_POINT('',(-4.149747468306,-3.564106822251));
#376 = CARTESIAN_POINT('',(-1.749747468306,-4.949747468306));
#377 = CARTESIAN_POINT('',(-4.149747468306,-6.335388114361));
#378 = CARTESIAN_POINT('',(-6.549747468306,-7.721028760416));
#379 = CARTESIAN_POINT('',(-6.549747468306,-4.949747468306));
#380 = ( GEOMETRIC_REPRESENTATION_CONTEXT(2) 
PARAMETRIC_REPRESENTATION_CONTEXT() REPRESENTATION_CONTEXT('2D SPACE',''
  ) );
#381 = PCURVE('',#382,#387);
#382 = CYLINDRICAL_SURFACE('',#383,1.6);
#383 = AXIS2_PLACEMENT_3D('',#384,#385,#386);
#384 = CARTESIAN_POINT('',(-4.949747468306,-4.949747468306,10.));
#385 = DIRECTION('',(0.,0.,-1.));
#386 = DIRECTION('',(-1.,0.,0.));
#387 = DEFINITIONAL_REPRESENTATION('',(#388),#392);
#388 = LINE('',#389,#390);
#389 = CARTESIAN_POINT('',(0.,10.));
#390 = VECTOR('',#391,1.);
#391 = DIRECTION('',(1.,0.));
#392 = ( GEOMETRIC_REPRESENTATION_CONTEXT(2) 
PARAMETRIC_REPRESENTATION_CONTEXT() REPRESENTATION_CONTEXT('2D SPACE',''
  ) );
#393 = FACE_BOUND('',#394,.F.);
#394 = EDGE_LOOP('',(#395));
#395 = ORIENTED_EDGE('',*,*,#396,.T.);
#396 = EDGE_CURVE('',#397,#397,#399,.T.);
#397 = VERTEX_POINT('',#398);
#398 = CARTESIAN_POINT('',(3.349747468306,-4.949747468306,0.));
#399 = SURFACE_CURVE('',#400,(#405,#416),.PCURVE_S1.);
#400 = CIRCLE('',#401,1.6);
#401 = AXIS2_PLACEMENT_3D('',#402,#403,#404);
#402 = CARTESIAN_POINT('',(4.949747468306,-4.949747468306,0.));
#403 = DIRECTION('',(0.,0.,-1.));
#404 = DIRECTION('',(-1.,0.,0.));
#405 = PCURVE('',#43,#406);
#406 = DEFINITIONAL_REPRESENTATION('',(#407),#415);
#407 = ( BOUNDED_CURVE() B_SPLINE_CURVE(2,(#408,#409,#410,#411,#412,#413
,#414),.UNSPECIFIED.,.T.,.F.) B_SPLINE_CURVE_WITH_KNOTS((1,2,2,2,2,1),(
    -2.094395102393,0.,2.094395102393,4.188790204786,6.28318530718,
8.377580409573),.UNSPECIFIED.) CURVE() GEOMETRIC_REPRESENTATION_ITEM() 
RATIONAL_B_SPLINE_CURVE((1.,0.5,1.,0.5,1.,0.5,1.)) REPRESENTATION_ITEM(
  '') );
#408 = CARTESIAN_POINT('',(3.349747468306,-4.949747468306));
#409 = CARTESIAN_POINT('',(3.349747468306,-2.178466176196));
#410 = CARTESIAN_POINT('',(5.749747468306,-3.564106822251));
#411 = CARTESIAN_POINT('',(8.149747468306,-4.949747468306));
#412 = CARTESIAN_POINT('',(5.749747468306,-6.335388114361));
#413 = CARTESIAN_POINT('',(3.349747468306,-7.721028760416));
#414 = CARTESIAN_POINT('',(3.349747468306,-4.949747468306));
#415 = ( GEOMETRIC_REPRESENTATION_CONTEXT(2) 
PARAMETRIC_REPRESENTATION_CONTEXT() REPRESENTATION_CONTEXT('2D SPACE',''
  ) );
#416 = PCURVE('',#417,#422);
#417 = CYLINDRICAL_SURFACE('',#418,1.6);
#418 = AXIS2_PLACEMENT_3D('',#419,#420,#421);
#419 = CARTESIAN_POINT('',(4.949747468306,-4.949747468306,10.));
#420 = DIRECTION('',(0.,0.,-1.));
#421 = DIRECTION('',(-1.,0.,0.));
#422 = DEFINITIONAL_REPRESENTATION('',(#423),#427);
#423 = LINE('',#424,#425);
#424 = CARTESIAN_POINT('',(0.,10.));
#425 = VECTOR('',#426,1.);
#426 = DIRECTION('',(1.,0.));
#427 = ( GEOMETRIC_REPRESENTATION_CONTEXT(2) 
PARAMETRIC_REPRESENTATION_CONTEXT() REPRESENTATION_CONTEXT('2D SPACE',''
  ) );
#428 = FACE_BOUND('',#429,.F.);
#429 = EDGE_LOOP('',(#430,#458));
#430 = ORIENTED_EDGE('',*,*,#431,.F.);
#431 = EDGE_CURVE('',#432,#434,#436,.T.);
#432 = VERTEX_POINT('',#433);
#433 = CARTESIAN_POINT('',(2.51,-1.750285690966,0.));
#434 = VERTEX_POINT('',#435);
#435 = CARTESIAN_POINT('',(2.51,1.750285690966,0.));
#436 = SURFACE_CURVE('',#437,(#441,#447),.PCURVE_S1.);
#437 = LINE('',#438,#439);
#438 = CARTESIAN_POINT('',(2.51,-3.06,0.));
#439 = VECTOR('',#440,1.);
#440 = DIRECTION('',(0.,1.,0.));
#441 = PCURVE('',#43,#442);
#442 = DEFINITIONAL_REPRESENTATION('',(#443),#446);
#443 = B_SPLINE_CURVE_WITH_KNOTS('',1,(#444,#445),.UNSPECIFIED.,.F.,.F.,
  (2,2),(1.309714309034,4.810285690966),.PIECEWISE_BEZIER_KNOTS.);
#444 = CARTESIAN_POINT('',(2.51,-1.750285690966));
#445 = CARTESIAN_POINT('',(2.51,1.750285690966));
#446 = ( GEOMETRIC_REPRESENTATION_CONTEXT(2) 
PARAMETRIC_REPRESENTATION_CONTEXT() REPRESENTATION_CONTEXT('2D SPACE',''
  ) );
#447 = PCURVE('',#448,#453);
#448 = PLANE('',#449);
#449 = AXIS2_PLACEMENT_3D('',#450,#451,#452);
#450 = CARTESIAN_POINT('',(2.51,-6.12,-2.));
#451 = DIRECTION('',(1.,0.,0.));
#452 = DIRECTION('',(0.,0.,1.));
#453 = DEFINITIONAL_REPRESENTATION('',(#454),#457);
#454 = B_SPLINE_CURVE_WITH_KNOTS('',1,(#455,#456),.UNSPECIFIED.,.F.,.F.,
  (2,2),(1.309714309034,4.810285690966),.PIECEWISE_BEZIER_KNOTS.);
#455 = CARTESIAN_POINT('',(2.,-4.369714309034));
#456 = CARTESIAN_POINT('',(2.,-7.870285690966));
#457 = ( GEOMETRIC_REPRESENTATION_CONTEXT(2) 
PARAMETRIC_REPRESENTATION_CONTEXT() REPRESENTATION_CONTEXT('2D SPACE',''
  ) );
#458 = ORIENTED_EDGE('',*,*,#459,.T.);
#459 = EDGE_CURVE('',#432,#434,#460,.T.);
#460 = SURFACE_CURVE('',#461,(#466,#477),.PCURVE_S1.);
#461 = CIRCLE('',#462,3.06);
#462 = AXIS2_PLACEMENT_3D('',#463,#464,#465);
#463 = CARTESIAN_POINT('',(0.,0.,0.));
#464 = DIRECTION('',(0.,0.,-1.));
#465 = DIRECTION('',(1.,0.,0.));
#466 = PCURVE('',#43,#467);
#467 = DEFINITIONAL_REPRESENTATION('',(#468),#476);
#468 = ( BOUNDED_CURVE() B_SPLINE_CURVE(2,(#469,#470,#471,#472,#473,#474
,#475),.UNSPECIFIED.,.T.,.F.) B_SPLINE_CURVE_WITH_KNOTS((1,2,2,2,2,1),(
    -2.094395102393,0.,2.094395102393,4.188790204786,6.28318530718,
8.377580409573),.UNSPECIFIED.) CURVE() GEOMETRIC_REPRESENTATION_ITEM() 
RATIONAL_B_SPLINE_CURVE((1.,0.5,1.,0.5,1.,0.5,1.)) REPRESENTATION_ITEM(
  '') );
#469 = CARTESIAN_POINT('',(3.06,-1.236537197009E-15));
#470 = CARTESIAN_POINT('',(3.06,-5.300075471161));
#471 = CARTESIAN_POINT('',(-1.53,-2.65003773558));
#472 = CARTESIAN_POINT('',(-6.12,-1.986021038088E-15));
#473 = CARTESIAN_POINT('',(-1.53,2.65003773558));
#474 = CARTESIAN_POINT('',(3.06,5.300075471161));
#475 = CARTESIAN_POINT('',(3.06,-1.236537197009E-15));
#476 = ( GEOMETRIC_REPRESENTATION_CONTEXT(2) 
PARAMETRIC_REPRESENTATION_CONTEXT() REPRESENTATION_CONTEXT('2D SPACE',''
  ) );
#477 = PCURVE('',#478,#483);
#478 = CYLINDRICAL_SURFACE('',#479,3.06);
#479 = AXIS2_PLACEMENT_3D('',#480,#481,#482);
#480 = CARTESIAN_POINT('',(0.,0.,-1.));
#481 = DIRECTION('',(-0.,-0.,-1.));
#482 = DIRECTION('',(1.,0.,0.));
#483 = DEFINITIONAL_REPRESENTATION('',(#484),#488);
#484 = LINE('',#485,#486);
#485 = CARTESIAN_POINT('',(-6.28318530718,-1.));
#486 = VECTOR('',#487,1.);
#487 = DIRECTION('',(1.,-0.));
#488 = ( GEOMETRIC_REPRESENTATION_CONTEXT(2) 
PARAMETRIC_REPRESENTATION_CONTEXT() REPRESENTATION_CONTEXT('2D SPACE',''
  ) );
#489 = FACE_BOUND('',#490,.F.);
#490 = EDGE_LOOP('',(#491));
#491 = ORIENTED_EDGE('',*,*,#492,.T.);
#492 = EDGE_CURVE('',#493,#493,#495,.T.);
#493 = VERTEX_POINT('',#494);
#494 = CARTESIAN_POINT('',(-6.549747468306,4.949747468306,0.));
#495 = SURFACE_CURVE('',#496,(#501,#512),.PCURVE_S1.);
#496 = CIRCLE('',#497,1.6);
#497 = AXIS2_PLACEMENT_3D('',#498,#499,#500);
#498 = CARTESIAN_POINT('',(-4.949747468306,4.949747468306,0.));
#499 = DIRECTION('',(0.,0.,-1.));
#500 = DIRECTION('',(-1.,0.,0.));
#501 = PCURVE('',#43,#502);
#502 = DEFINITIONAL_REPRESENTATION('',(#503),#511);
#503 = ( BOUNDED_CURVE() B_SPLINE_CURVE(2,(#504,#505,#506,#507,#508,#509
,#510),.UNSPECIFIED.,.T.,.F.) B_SPLINE_CURVE_WITH_KNOTS((1,2,2,2,2,1),(
    -2.094395102393,0.,2.094395102393,4.188790204786,6.28318530718,
8.377580409573),.UNSPECIFIED.) CURVE() GEOMETRIC_REPRESENTATION_ITEM() 
RATIONAL_B_SPLINE_CURVE((1.,0.5,1.,0.5,1.,0.5,1.)) REPRESENTATION_ITEM(
  '') );
#504 = CARTESIAN_POINT('',(-6.549747468306,4.949747468306));
#505 = CARTESIAN_POINT('',(-6.549747468306,7.721028760416));
#506 = CARTESIAN_POINT('',(-4.149747468306,6.335388114361));
#507 = CARTESIAN_POINT('',(-1.749747468306,4.949747468306));
#508 = CARTESIAN_POINT('',(-4.149747468306,3.564106822251));
#509 = CARTESIAN_POINT('',(-6.549747468306,2.178466176196));
#510 = CARTESIAN_POINT('',(-6.549747468306,4.949747468306));
#511 = ( GEOMETRIC_REPRESENTATION_CONTEXT(2) 
PARAMETRIC_REPRESENTATION_CONTEXT() REPRESENTATION_CONTEXT('2D SPACE',''
  ) );
#512 = PCURVE('',#513,#518);
#513 = CYLINDRICAL_SURFACE('',#514,1.6);
#514 = AXIS2_PLACEMENT_3D('',#515,#516,#517);
#515 = CARTESIAN_POINT('',(-4.949747468306,4.949747468306,10.));
#516 = DIRECTION('',(0.,0.,-1.));
#517 = DIRECTION('',(-1.,0.,0.));
#518 = DEFINITIONAL_REPRESENTATION('',(#519),#523);
#519 = LINE('',#520,#521);
#520 = CARTESIAN_POINT('',(0.,10.));
#521 = VECTOR('',#522,1.);
#522 = DIRECTION('',(1.,0.));
#523 = ( GEOMETRIC_REPRESENTATION_CONTEXT(2) 
PARAMETRIC_REPRESENTATION_CONTEXT() REPRESENTATION_CONTEXT('2D SPACE',''
  ) );
#524 = FACE_BOUND('',#525,.F.);
#525 = EDGE_LOOP('',(#526));
#526 = ORIENTED_EDGE('',*,*,#527,.T.);
#527 = EDGE_CURVE('',#528,#528,#530,.T.);
#528 = VERTEX_POINT('',#529);
#529 = CARTESIAN_POINT('',(3.349747468306,4.949747468306,0.));
#530 = SURFACE_CURVE('',#531,(#536,#547),.PCURVE_S1.);
#531 = CIRCLE('',#532,1.6);
#532 = AXIS2_PLACEMENT_3D('',#533,#534,#535);
#533 = CARTESIAN_POINT('',(4.949747468306,4.949747468306,0.));
#534 = DIRECTION('',(0.,0.,-1.));
#535 = DIRECTION('',(-1.,0.,0.));
#536 = PCURVE('',#43,#537);
#537 = DEFINITIONAL_REPRESENTATION('',(#538),#546);
#538 = ( BOUNDED_CURVE() B_SPLINE_CURVE(2,(#539,#540,#541,#542,#543,#544
,#545),.UNSPECIFIED.,.T.,.F.) B_SPLINE_CURVE_WITH_KNOTS((1,2,2,2,2,1),(
    -2.094395102393,0.,2.094395102393,4.188790204786,6.28318530718,
8.377580409573),.UNSPECIFIED.) CURVE() GEOMETRIC_REPRESENTATION_ITEM() 
RATIONAL_B_SPLINE_CURVE((1.,0.5,1.,0.5,1.,0.5,1.)) REPRESENTATION_ITEM(
  '') );
#539 = CARTESIAN_POINT('',(3.349747468306,4.949747468306));
#540 = CARTESIAN_POINT('',(3.349747468306,7.721028760416));
#541 = CARTESIAN_POINT('',(5.749747468306,6.335388114361));
#542 = CARTESIAN_POINT('',(8.149747468306,4.949747468306));
#543 = CARTESIAN_POINT('',(5.749747468306,3.564106822251));
#544 = CARTESIAN_POINT('',(3.349747468306,2.178466176196));
#545 = CARTESIAN_POINT('',(3.349747468306,4.949747468306));
#546 = ( GEOMETRIC_REPRESENTATION_CONTEXT(2) 
PARAMETRIC_REPRESENTATION_CONTEXT() REPRESENTATION_CONTEXT('2D SPACE',''
  ) );
#547 = PCURVE('',#548,#553);
#548 = CYLINDRICAL_SURFACE('',#549,1.6);
#549 = AXIS2_PLACEMENT_3D('',#550,#551,#552);
#550 = CARTESIAN_POINT('',(4.949747468306,4.949747468306,10.));
#551 = DIRECTION('',(0.,0.,-1.));
#552 = DIRECTION('',(-1.,0.,0.));
#553 = DEFINITIONAL_REPRESENTATION('',(#554),#558);
#554 = LINE('',#555,#556);
#555 = CARTESIAN_POINT('',(0.,10.));
#556 = VECTOR('',#557,1.);
#557 = DIRECTION('',(1.,0.));
#558 = ( GEOMETRIC_REPRESENTATION_CONTEXT(2) 
PARAMETRIC_REPRESENTATION_CONTEXT() REPRESENTATION_CONTEXT('2D SPACE',''
  ) );
#559 = ADVANCED_FACE('',(#560),#116,.F.);
#560 = FACE_BOUND('',#561,.T.);
#561 = EDGE_LOOP('',(#562,#591,#612,#613,#614,#615));
#562 = ORIENTED_EDGE('',*,*,#563,.F.);
#563 = EDGE_CURVE('',#564,#564,#566,.T.);
#564 = VERTEX_POINT('',#565);
#565 = CARTESIAN_POINT('',(10.,2.1,5.));
#566 = SURFACE_CURVE('',#567,(#572,#579),.PCURVE_S1.);
#567 = CIRCLE('',#568,2.1);
#568 = AXIS2_PLACEMENT_3D('',#569,#570,#571);
#569 = CARTESIAN_POINT('',(10.,0.,5.));
#570 = DIRECTION('',(1.,0.,0.));
#571 = DIRECTION('',(0.,1.,0.));
#572 = PCURVE('',#116,#573);
#573 = DEFINITIONAL_REPRESENTATION('',(#574),#578);
#574 = LINE('',#575,#576);
#575 = CARTESIAN_POINT('',(-0.,0.));
#576 = VECTOR('',#577,1.);
#577 = DIRECTION('',(-1.,0.));
#578 = ( GEOMETRIC_REPRESENTATION_CONTEXT(2) 
PARAMETRIC_REPRESENTATION_CONTEXT() REPRESENTATION_CONTEXT('2D SPACE',''
  ) );
#579 = PCURVE('',#580,#585);
#580 = PLANE('',#581);
#581 = AXIS2_PLACEMENT_3D('',#582,#583,#584);
#582 = CARTESIAN_POINT('',(10.,-1.220928689767E-16,5.));
#583 = DIRECTION('',(1.,0.,0.));
#584 = DIRECTION('',(-0.,0.,1.));
#585 = DEFINITIONAL_REPRESENTATION('',(#586),#590);
#586 = CIRCLE('',#587,2.1);
#587 = AXIS2_PLACEMENT_2D('',#588,#589);
#588 = CARTESIAN_POINT('',(-8.881784197001E-16,-1.220928689767E-16));
#589 = DIRECTION('',(0.,-1.));
#590 = ( GEOMETRIC_REPRESENTATION_CONTEXT(2) 
PARAMETRIC_REPRESENTATION_CONTEXT() REPRESENTATION_CONTEXT('2D SPACE',''
  ) );
#591 = ORIENTED_EDGE('',*,*,#592,.T.);
#592 = EDGE_CURVE('',#564,#79,#593,.T.);
#593 = SEAM_CURVE('',#594,(#598,#605),.PCURVE_S1.);
#594 = LINE('',#595,#596);
#595 = CARTESIAN_POINT('',(10.,2.1,5.));
#596 = VECTOR('',#597,1.);
#597 = DIRECTION('',(1.,0.,0.));
#598 = PCURVE('',#116,#599);
#599 = DEFINITIONAL_REPRESENTATION('',(#600),#604);
#600 = LINE('',#601,#602);
#601 = CARTESIAN_POINT('',(-6.28318530718,0.));
#602 = VECTOR('',#603,1.);
#603 = DIRECTION('',(-0.,-1.));
#604 = ( GEOMETRIC_REPRESENTATION_CONTEXT(2) 
PARAMETRIC_REPRESENTATION_CONTEXT() REPRESENTATION_CONTEXT('2D SPACE',''
  ) );
#605 = PCURVE('',#116,#606);
#606 = DEFINITIONAL_REPRESENTATION('',(#607),#611);
#607 = LINE('',#608,#609);
#608 = CARTESIAN_POINT('',(-0.,0.));
#609 = VECTOR('',#610,1.);
#610 = DIRECTION('',(-0.,-1.));
#611 = ( GEOMETRIC_REPRESENTATION_CONTEXT(2) 
PARAMETRIC_REPRESENTATION_CONTEXT() REPRESENTATION_CONTEXT('2D SPACE',''
  ) );
#612 = ORIENTED_EDGE('',*,*,#139,.T.);
#613 = ORIENTED_EDGE('',*,*,#264,.T.);
#614 = ORIENTED_EDGE('',*,*,#78,.T.);
#615 = ORIENTED_EDGE('',*,*,#592,.F.);
#616 = ADVANCED_FACE('',(#617,#620,#650,#680,#731,#761),#251,.T.);
#617 = FACE_BOUND('',#618,.T.);
#618 = EDGE_LOOP('',(#619));
#619 = ORIENTED_EDGE('',*,*,#236,.T.);
#620 = FACE_BOUND('',#621,.T.);
#621 = EDGE_LOOP('',(#622));
#622 = ORIENTED_EDGE('',*,*,#623,.T.);
#623 = EDGE_CURVE('',#624,#624,#626,.T.);
#624 = VERTEX_POINT('',#625);
#625 = CARTESIAN_POINT('',(-6.549747468306,-4.949747468306,10.));
#626 = SURFACE_CURVE('',#627,(#632,#643),.PCURVE_S1.);
#627 = CIRCLE('',#628,1.6);
#628 = AXIS2_PLACEMENT_3D('',#629,#630,#631);
#629 = CARTESIAN_POINT('',(-4.949747468306,-4.949747468306,10.));
#630 = DIRECTION('',(0.,0.,-1.));
#631 = DIRECTION('',(-1.,0.,0.));
#632 = PCURVE('',#251,#633);
#633 = DEFINITIONAL_REPRESENTATION('',(#634),#642);
#634 = ( BOUNDED_CURVE() B_SPLINE_CURVE(2,(#635,#636,#637,#638,#639,#640
,#641),.UNSPECIFIED.,.T.,.F.) B_SPLINE_CURVE_WITH_KNOTS((1,2,2,2,2,1),(
    -2.094395102393,0.,2.094395102393,4.188790204786,6.28318530718,
8.377580409573),.UNSPECIFIED.) CURVE() GEOMETRIC_REPRESENTATION_ITEM() 
RATIONAL_B_SPLINE_CURVE((1.,0.5,1.,0.5,1.,0.5,1.)) REPRESENTATION_ITEM(
  '') );
#635 = CARTESIAN_POINT('',(-6.549747468306,-4.949747468306));
#636 = CARTESIAN_POINT('',(-6.549747468306,-2.178466176196));
#637 = CARTESIAN_POINT('',(-4.149747468306,-3.564106822251));
#638 = CARTESIAN_POINT('',(-1.749747468306,-4.949747468306));
#639 = CARTESIAN_POINT('',(-4.149747468306,-6.335388114361));
#640 = CARTESIAN_POINT('',(-6.549747468306,-7.721028760416));
#641 = CARTESIAN_POINT('',(-6.549747468306,-4.949747468306));
#642 = ( GEOMETRIC_REPRESENTATION_CONTEXT(2) 
PARAMETRIC_REPRESENTATION_CONTEXT() REPRESENTATION_CONTEXT('2D SPACE',''
  ) );
#643 = PCURVE('',#382,#644);
#644 = DEFINITIONAL_REPRESENTATION('',(#645),#649);
#645 = LINE('',#646,#647);
#646 = CARTESIAN_POINT('',(0.,0.));
#647 = VECTOR('',#648,1.);
#648 = DIRECTION('',(1.,0.));
#649 = ( GEOMETRIC_REPRESENTATION_CONTEXT(2) 
PARAMETRIC_REPRESENTATION_CONTEXT() REPRESENTATION_CONTEXT('2D SPACE',''
  ) );
#650 = FACE_BOUND('',#651,.T.);
#651 = EDGE_LOOP('',(#652));
#652 = ORIENTED_EDGE('',*,*,#653,.T.);
#653 = EDGE_CURVE('',#654,#654,#656,.T.);
#654 = VERTEX_POINT('',#655);
#655 = CARTESIAN_POINT('',(3.349747468306,-4.949747468306,10.));
#656 = SURFACE_CURVE('',#657,(#662,#673),.PCURVE_S1.);
#657 = CIRCLE('',#658,1.6);
#658 = AXIS2_PLACEMENT_3D('',#659,#660,#661);
#659 = CARTESIAN_POINT('',(4.949747468306,-4.949747468306,10.));
#660 = DIRECTION('',(0.,0.,-1.));
#661 = DIRECTION('',(-1.,0.,0.));
#662 = PCURVE('',#251,#663);
#663 = DEFINITIONAL_REPRESENTATION('',(#664),#672);
#664 = ( BOUNDED_CURVE() B_SPLINE_CURVE(2,(#665,#666,#667,#668,#669,#670
,#671),.UNSPECIFIED.,.T.,.F.) B_SPLINE_CURVE_WITH_KNOTS((1,2,2,2,2,1),(
    -2.094395102393,0.,2.094395102393,4.188790204786,6.28318530718,
8.377580409573),.UNSPECIFIED.) CURVE() GEOMETRIC_REPRESENTATION_ITEM() 
RATIONAL_B_SPLINE_CURVE((1.,0.5,1.,0.5,1.,0.5,1.)) REPRESENTATION_ITEM(
  '') );
#665 = CARTESIAN_POINT('',(3.349747468306,-4.949747468306));
#666 = CARTESIAN_POINT('',(3.349747468306,-2.178466176196));
#667 = CARTESIAN_POINT('',(5.749747468306,-3.564106822251));
#668 = CARTESIAN_POINT('',(8.149747468306,-4.949747468306));
#669 = CARTESIAN_POINT('',(5.749747468306,-6.335388114361));
#670 = CARTESIAN_POINT('',(3.349747468306,-7.721028760416));
#671 = CARTESIAN_POINT('',(3.349747468306,-4.949747468306));
#672 = ( GEOMETRIC_REPRESENTATION_CONTEXT(2) 
PARAMETRIC_REPRESENTATION_CONTEXT() REPRESENTATION_CONTEXT('2D SPACE',''
  ) );
#673 = PCURVE('',#417,#674);
#674 = DEFINITIONAL_REPRESENTATION('',(#675),#679);
#675 = LINE('',#676,#677);
#676 = CARTESIAN_POINT('',(0.,0.));
#677 = VECTOR('',#678,1.);
#678 = DIRECTION('',(1.,0.));
#679 = ( GEOMETRIC_REPRESENTATION_CONTEXT(2) 
PARAMETRIC_REPRESENTATION_CONTEXT() REPRESENTATION_CONTEXT('2D SPACE',''
  ) );
#680 = FACE_BOUND('',#681,.T.);
#681 = EDGE_LOOP('',(#682,#705));
#682 = ORIENTED_EDGE('',*,*,#683,.F.);
#683 = EDGE_CURVE('',#684,#686,#688,.T.);
#684 = VERTEX_POINT('',#685);
#685 = CARTESIAN_POINT('',(2.51,-1.750285690966,10.));
#686 = VERTEX_POINT('',#687);
#687 = CARTESIAN_POINT('',(2.51,1.750285690966,10.));
#688 = SURFACE_CURVE('',#689,(#693,#699),.PCURVE_S1.);
#689 = LINE('',#690,#691);
#690 = CARTESIAN_POINT('',(2.51,-3.06,10.));
#691 = VECTOR('',#692,1.);
#692 = DIRECTION('',(0.,1.,0.));
#693 = PCURVE('',#251,#694);
#694 = DEFINITIONAL_REPRESENTATION('',(#695),#698);
#695 = B_SPLINE_CURVE_WITH_KNOTS('',1,(#696,#697),.UNSPECIFIED.,.F.,.F.,
  (2,2),(1.309714309034,4.810285690966),.PIECEWISE_BEZIER_KNOTS.);
#696 = CARTESIAN_POINT('',(2.51,-1.750285690966));
#697 = CARTESIAN_POINT('',(2.51,1.750285690966));
#698 = ( GEOMETRIC_REPRESENTATION_CONTEXT(2) 
PARAMETRIC_REPRESENTATION_CONTEXT() REPRESENTATION_CONTEXT('2D SPACE',''
  ) );
#699 = PCURVE('',#448,#700);
#700 = DEFINITIONAL_REPRESENTATION('',(#701),#704);
#701 = B_SPLINE_CURVE_WITH_KNOTS('',1,(#702,#703),.UNSPECIFIED.,.F.,.F.,
  (2,2),(1.309714309034,4.810285690966),.PIECEWISE_BEZIER_KNOTS.);
#702 = CARTESIAN_POINT('',(12.,-4.369714309034));
#703 = CARTESIAN_POINT('',(12.,-7.870285690966));
#704 = ( GEOMETRIC_REPRESENTATION_CONTEXT(2) 
PARAMETRIC_REPRESENTATION_CONTEXT() REPRESENTATION_CONTEXT('2D SPACE',''
  ) );
#705 = ORIENTED_EDGE('',*,*,#706,.T.);
#706 = EDGE_CURVE('',#684,#686,#707,.T.);
#707 = SURFACE_CURVE('',#708,(#713,#724),.PCURVE_S1.);
#708 = CIRCLE('',#709,3.06);
#709 = AXIS2_PLACEMENT_3D('',#710,#711,#712);
#710 = CARTESIAN_POINT('',(0.,0.,10.));
#711 = DIRECTION('',(0.,0.,-1.));
#712 = DIRECTION('',(1.,0.,0.));
#713 = PCURVE('',#251,#714);
#714 = DEFINITIONAL_REPRESENTATION('',(#715),#723);
#715 = ( BOUNDED_CURVE() B_SPLINE_CURVE(2,(#716,#717,#718,#719,#720,#721
,#722),.UNSPECIFIED.,.T.,.F.) B_SPLINE_CURVE_WITH_KNOTS((1,2,2,2,2,1),(
    -2.094395102393,0.,2.094395102393,4.188790204786,6.28318530718,
8.377580409573),.UNSPECIFIED.) CURVE() GEOMETRIC_REPRESENTATION_ITEM() 
RATIONAL_B_SPLINE_CURVE((1.,0.5,1.,0.5,1.,0.5,1.)) REPRESENTATION_ITEM(
  '') );
#716 = CARTESIAN_POINT('',(3.06,-1.236537197009E-15));
#717 = CARTESIAN_POINT('',(3.06,-5.300075471161));
#718 = CARTESIAN_POINT('',(-1.53,-2.65003773558));
#719 = CARTESIAN_POINT('',(-6.12,-1.986021038088E-15));
#720 = CARTESIAN_POINT('',(-1.53,2.65003773558));
#721 = CARTESIAN_POINT('',(3.06,5.300075471161));
#722 = CARTESIAN_POINT('',(3.06,-1.236537197009E-15));
#723 = ( GEOMETRIC_REPRESENTATION_CONTEXT(2) 
PARAMETRIC_REPRESENTATION_CONTEXT() REPRESENTATION_CONTEXT('2D SPACE',''
  ) );
#724 = PCURVE('',#478,#725);
#725 = DEFINITIONAL_REPRESENTATION('',(#726),#730);
#726 = LINE('',#727,#728);
#727 = CARTESIAN_POINT('',(-6.28318530718,-11.));
#728 = VECTOR('',#729,1.);
#729 = DIRECTION('',(1.,-0.));
#730 = ( GEOMETRIC_REPRESENTATION_CONTEXT(2) 
PARAMETRIC_REPRESENTATION_CONTEXT() REPRESENTATION_CONTEXT('2D SPACE',''
  ) );
#731 = FACE_BOUND('',#732,.T.);
#732 = EDGE_LOOP('',(#733));
#733 = ORIENTED_EDGE('',*,*,#734,.T.);
#734 = EDGE_CURVE('',#735,#735,#737,.T.);
#735 = VERTEX_POINT('',#736);
#736 = CARTESIAN_POINT('',(-6.549747468306,4.949747468306,10.));
#737 = SURFACE_CURVE('',#738,(#743,#754),.PCURVE_S1.);
#738 = CIRCLE('',#739,1.6);
#739 = AXIS2_PLACEMENT_3D('',#740,#741,#742);
#740 = CARTESIAN_POINT('',(-4.949747468306,4.949747468306,10.));
#741 = DIRECTION('',(0.,0.,-1.));
#742 = DIRECTION('',(-1.,0.,0.));
#743 = PCURVE('',#251,#744);
#744 = DEFINITIONAL_REPRESENTATION('',(#745),#753);
#745 = ( BOUNDED_CURVE() B_SPLINE_CURVE(2,(#746,#747,#748,#749,#750,#751
,#752),.UNSPECIFIED.,.T.,.F.) B_SPLINE_CURVE_WITH_KNOTS((1,2,2,2,2,1),(
    -2.094395102393,0.,2.094395102393,4.188790204786,6.28318530718,
8.377580409573),.UNSPECIFIED.) CURVE() GEOMETRIC_REPRESENTATION_ITEM() 
RATIONAL_B_SPLINE_CURVE((1.,0.5,1.,0.5,1.,0.5,1.)) REPRESENTATION_ITEM(
  '') );
#746 = CARTESIAN_POINT('',(-6.549747468306,4.949747468306));
#747 = CARTESIAN_POINT('',(-6.549747468306,7.721028760416));
#748 = CARTESIAN_POINT('',(-4.149747468306,6.335388114361));
#749 = CARTESIAN_POINT('',(-1.749747468306,4.949747468306));
#750 = CARTESIAN_POINT('',(-4.149747468306,3.564106822251));
#751 = CARTESIAN_POINT('',(-6.549747468306,2.178466176196));
#752 = CARTESIAN_POINT('',(-6.549747468306,4.949747468306));
#753 = ( GEOMETRIC_REPRESENTATION_CONTEXT(2) 
PARAMETRIC_REPRESENTATION_CONTEXT() REPRESENTATION_CONTEXT('2D SPACE',''
  ) );
#754 = PCURVE('',#513,#755);
#755 = DEFINITIONAL_REPRESENTATION('',(#756),#760);
#756 = LINE('',#757,#758);
#757 = CARTESIAN_POINT('',(0.,0.));
#758 = VECTOR('',#759,1.);
#759 = DIRECTION('',(1.,0.));
#760 = ( GEOMETRIC_REPRESENTATION_CONTEXT(2) 
PARAMETRIC_REPRESENTATION_CONTEXT() REPRESENTATION_CONTEXT('2D SPACE',''
  ) );
#761 = FACE_BOUND('',#762,.T.);
#762 = EDGE_LOOP('',(#763));
#763 = ORIENTED_EDGE('',*,*,#764,.T.);
#764 = EDGE_CURVE('',#765,#765,#767,.T.);
#765 = VERTEX_POINT('',#766);
#766 = CARTESIAN_POINT('',(3.349747468306,4.949747468306,10.));
#767 = SURFACE_CURVE('',#768,(#773,#784),.PCURVE_S1.);
#768 = CIRCLE('',#769,1.6);
#769 = AXIS2_PLACEMENT_3D('',#770,#771,#772);
#770 = CARTESIAN_POINT('',(4.949747468306,4.949747468306,10.));
#771 = DIRECTION('',(0.,0.,-1.));
#772 = DIRECTION('',(-1.,0.,0.));
#773 = PCURVE('',#251,#774);
#774 = DEFINITIONAL_REPRESENTATION('',(#775),#783);
#775 = ( BOUNDED_CURVE() B_SPLINE_CURVE(2,(#776,#777,#778,#779,#780,#781
,#782),.UNSPECIFIED.,.T.,.F.) B_SPLINE_CURVE_WITH_KNOTS((1,2,2,2,2,1),(
    -2.094395102393,0.,2.094395102393,4.188790204786,6.28318530718,
8.377580409573),.UNSPECIFIED.) CURVE() GEOMETRIC_REPRESENTATION_ITEM() 
RATIONAL_B_SPLINE_CURVE((1.,0.5,1.,0.5,1.,0.5,1.)) REPRESENTATION_ITEM(
  '') );
#776 = CARTESIAN_POINT('',(3.349747468306,4.949747468306));
#777 = CARTESIAN_POINT('',(3.349747468306,7.721028760416));
#778 = CARTESIAN_POINT('',(5.749747468306,6.335388114361));
#779 = CARTESIAN_POINT('',(8.149747468306,4.949747468306));
#780 = CARTESIAN_POINT('',(5.749747468306,3.564106822251));
#781 = CARTESIAN_POINT('',(3.349747468306,2.178466176196));
#782 = CARTESIAN_POINT('',(3.349747468306,4.949747468306));
#783 = ( GEOMETRIC_REPRESENTATION_CONTEXT(2) 
PARAMETRIC_REPRESENTATION_CONTEXT() REPRESENTATION_CONTEXT('2D SPACE',''
  ) );
#784 = PCURVE('',#548,#785);
#785 = DEFINITIONAL_REPRESENTATION('',(#786),#790);
#786 = LINE('',#787,#788);
#787 = CARTESIAN_POINT('',(0.,0.));
#788 = VECTOR('',#789,1.);
#789 = DIRECTION('',(1.,0.));
#790 = ( GEOMETRIC_REPRESENTATION_CONTEXT(2) 
PARAMETRIC_REPRESENTATION_CONTEXT() REPRESENTATION_CONTEXT('2D SPACE',''
  ) );
#791 = ADVANCED_FACE('',(#792),#382,.F.);
#792 = FACE_BOUND('',#793,.F.);
#793 = EDGE_LOOP('',(#794,#795,#816,#817));
#794 = ORIENTED_EDGE('',*,*,#361,.F.);
#795 = ORIENTED_EDGE('',*,*,#796,.F.);
#796 = EDGE_CURVE('',#624,#362,#797,.T.);
#797 = SEAM_CURVE('',#798,(#802,#809),.PCURVE_S1.);
#798 = LINE('',#799,#800);
#799 = CARTESIAN_POINT('',(-6.549747468306,-4.949747468306,10.));
#800 = VECTOR('',#801,1.);
#801 = DIRECTION('',(0.,0.,-1.));
#802 = PCURVE('',#382,#803);
#803 = DEFINITIONAL_REPRESENTATION('',(#804),#808);
#804 = LINE('',#805,#806);
#805 = CARTESIAN_POINT('',(6.28318530718,-0.));
#806 = VECTOR('',#807,1.);
#807 = DIRECTION('',(0.,1.));
#808 = ( GEOMETRIC_REPRESENTATION_CONTEXT(2) 
PARAMETRIC_REPRESENTATION_CONTEXT() REPRESENTATION_CONTEXT('2D SPACE',''
  ) );
#809 = PCURVE('',#382,#810);
#810 = DEFINITIONAL_REPRESENTATION('',(#811),#815);
#811 = LINE('',#812,#813);
#812 = CARTESIAN_POINT('',(0.,-0.));
#813 = VECTOR('',#814,1.);
#814 = DIRECTION('',(0.,1.));
#815 = ( GEOMETRIC_REPRESENTATION_CONTEXT(2) 
PARAMETRIC_REPRESENTATION_CONTEXT() REPRESENTATION_CONTEXT('2D SPACE',''
  ) );
#816 = ORIENTED_EDGE('',*,*,#623,.T.);
#817 = ORIENTED_EDGE('',*,*,#796,.T.);
#818 = ADVANCED_FACE('',(#819),#417,.F.);
#819 = FACE_BOUND('',#820,.F.);
#820 = EDGE_LOOP('',(#821,#822,#843,#844));
#821 = ORIENTED_EDGE('',*,*,#396,.F.);
#822 = ORIENTED_EDGE('',*,*,#823,.F.);
#823 = EDGE_CURVE('',#654,#397,#824,.T.);
#824 = SEAM_CURVE('',#825,(#829,#836),.PCURVE_S1.);
#825 = LINE('',#826,#827);
#826 = CARTESIAN_POINT('',(3.349747468306,-4.949747468306,10.));
#827 = VECTOR('',#828,1.);
#828 = DIRECTION('',(0.,0.,-1.));
#829 = PCURVE('',#417,#830);
#830 = DEFINITIONAL_REPRESENTATION('',(#831),#835);
#831 = LINE('',#832,#833);
#832 = CARTESIAN_POINT('',(6.28318530718,-0.));
#833 = VECTOR('',#834,1.);
#834 = DIRECTION('',(0.,1.));
#835 = ( GEOMETRIC_REPRESENTATION_CONTEXT(2) 
PARAMETRIC_REPRESENTATION_CONTEXT() REPRESENTATION_CONTEXT('2D SPACE',''
  ) );
#836 = PCURVE('',#417,#837);
#837 = DEFINITIONAL_REPRESENTATION('',(#838),#842);
#838 = LINE('',#839,#840);
#839 = CARTESIAN_POINT('',(0.,-0.));
#840 = VECTOR('',#841,1.);
#841 = DIRECTION('',(0.,1.));
#842 = ( GEOMETRIC_REPRESENTATION_CONTEXT(2) 
PARAMETRIC_REPRESENTATION_CONTEXT() REPRESENTATION_CONTEXT('2D SPACE',''
  ) );
#843 = ORIENTED_EDGE('',*,*,#653,.T.);
#844 = ORIENTED_EDGE('',*,*,#823,.T.);
#845 = ADVANCED_FACE('',(#846),#448,.F.);
#846 = FACE_BOUND('',#847,.F.);
#847 = EDGE_LOOP('',(#848,#869,#870,#891));
#848 = ORIENTED_EDGE('',*,*,#849,.F.);
#849 = EDGE_CURVE('',#686,#434,#850,.T.);
#850 = SURFACE_CURVE('',#851,(#855,#862),.PCURVE_S1.);
#851 = LINE('',#852,#853);
#852 = CARTESIAN_POINT('',(2.51,1.750285690966,-1.));
#853 = VECTOR('',#854,1.);
#854 = DIRECTION('',(-0.,-0.,-1.));
#855 = PCURVE('',#448,#856);
#856 = DEFINITIONAL_REPRESENTATION('',(#857),#861);
#857 = LINE('',#858,#859);
#858 = CARTESIAN_POINT('',(1.,-7.870285690966));
#859 = VECTOR('',#860,1.);
#860 = DIRECTION('',(-1.,0.));
#861 = ( GEOMETRIC_REPRESENTATION_CONTEXT(2) 
PARAMETRIC_REPRESENTATION_CONTEXT() REPRESENTATION_CONTEXT('2D SPACE',''
  ) );
#862 = PCURVE('',#478,#863);
#863 = DEFINITIONAL_REPRESENTATION('',(#864),#868);
#864 = LINE('',#865,#866);
#865 = CARTESIAN_POINT('',(-0.608928389472,0.));
#866 = VECTOR('',#867,1.);
#867 = DIRECTION('',(-0.,1.));
#868 = ( GEOMETRIC_REPRESENTATION_CONTEXT(2) 
PARAMETRIC_REPRESENTATION_CONTEXT() REPRESENTATION_CONTEXT('2D SPACE',''
  ) );
#869 = ORIENTED_EDGE('',*,*,#683,.F.);
#870 = ORIENTED_EDGE('',*,*,#871,.T.);
#871 = EDGE_CURVE('',#684,#432,#872,.T.);
#872 = SURFACE_CURVE('',#873,(#877,#884),.PCURVE_S1.);
#873 = LINE('',#874,#875);
#874 = CARTESIAN_POINT('',(2.51,-1.750285690966,-1.));
#875 = VECTOR('',#876,1.);
#876 = DIRECTION('',(-0.,-0.,-1.));
#877 = PCURVE('',#448,#878);
#878 = DEFINITIONAL_REPRESENTATION('',(#879),#883);
#879 = LINE('',#880,#881);
#880 = CARTESIAN_POINT('',(1.,-4.369714309034));
#881 = VECTOR('',#882,1.);
#882 = DIRECTION('',(-1.,0.));
#883 = ( GEOMETRIC_REPRESENTATION_CONTEXT(2) 
PARAMETRIC_REPRESENTATION_CONTEXT() REPRESENTATION_CONTEXT('2D SPACE',''
  ) );
#884 = PCURVE('',#478,#885);
#885 = DEFINITIONAL_REPRESENTATION('',(#886),#890);
#886 = LINE('',#887,#888);
#887 = CARTESIAN_POINT('',(-5.674256917708,0.));
#888 = VECTOR('',#889,1.);
#889 = DIRECTION('',(-0.,1.));
#890 = ( GEOMETRIC_REPRESENTATION_CONTEXT(2) 
PARAMETRIC_REPRESENTATION_CONTEXT() REPRESENTATION_CONTEXT('2D SPACE',''
  ) );
#891 = ORIENTED_EDGE('',*,*,#431,.T.);
#892 = ADVANCED_FACE('',(#893),#478,.F.);
#893 = FACE_BOUND('',#894,.T.);
#894 = EDGE_LOOP('',(#895,#896,#897,#898));
#895 = ORIENTED_EDGE('',*,*,#459,.T.);
#896 = ORIENTED_EDGE('',*,*,#849,.F.);
#897 = ORIENTED_EDGE('',*,*,#706,.F.);
#898 = ORIENTED_EDGE('',*,*,#871,.T.);
#899 = ADVANCED_FACE('',(#900),#513,.F.);
#900 = FACE_BOUND('',#901,.F.);
#901 = EDGE_LOOP('',(#902,#903,#924,#925));
#902 = ORIENTED_EDGE('',*,*,#492,.F.);
#903 = ORIENTED_EDGE('',*,*,#904,.F.);
#904 = EDGE_CURVE('',#735,#493,#905,.T.);
#905 = SEAM_CURVE('',#906,(#910,#917),.PCURVE_S1.);
#906 = LINE('',#907,#908);
#907 = CARTESIAN_POINT('',(-6.549747468306,4.949747468306,10.));
#908 = VECTOR('',#909,1.);
#909 = DIRECTION('',(0.,0.,-1.));
#910 = PCURVE('',#513,#911);
#911 = DEFINITIONAL_REPRESENTATION('',(#912),#916);
#912 = LINE('',#913,#914);
#913 = CARTESIAN_POINT('',(6.28318530718,-0.));
#914 = VECTOR('',#915,1.);
#915 = DIRECTION('',(0.,1.));
#916 = ( GEOMETRIC_REPRESENTATION_CONTEXT(2) 
PARAMETRIC_REPRESENTATION_CONTEXT() REPRESENTATION_CONTEXT('2D SPACE',''
  ) );
#917 = PCURVE('',#513,#918);
#918 = DEFINITIONAL_REPRESENTATION('',(#919),#923);
#919 = LINE('',#920,#921);
#920 = CARTESIAN_POINT('',(0.,-0.));
#921 = VECTOR('',#922,1.);
#922 = DIRECTION('',(0.,1.));
#923 = ( GEOMETRIC_REPRESENTATION_CONTEXT(2) 
PARAMETRIC_REPRESENTATION_CONTEXT() REPRESENTATION_CONTEXT('2D SPACE',''
  ) );
#924 = ORIENTED_EDGE('',*,*,#734,.T.);
#925 = ORIENTED_EDGE('',*,*,#904,.T.);
#926 = ADVANCED_FACE('',(#927),#548,.F.);
#927 = FACE_BOUND('',#928,.F.);
#928 = EDGE_LOOP('',(#929,#930,#951,#952));
#929 = ORIENTED_EDGE('',*,*,#527,.F.);
#930 = ORIENTED_EDGE('',*,*,#931,.F.);
#931 = EDGE_CURVE('',#765,#528,#932,.T.);
#932 = SEAM_CURVE('',#933,(#937,#944),.PCURVE_S1.);
#933 = LINE('',#934,#935);
#934 = CARTESIAN_POINT('',(3.349747468306,4.949747468306,10.));
#935 = VECTOR('',#936,1.);
#936 = DIRECTION('',(0.,0.,-1.));
#937 = PCURVE('',#548,#938);
#938 = DEFINITIONAL_REPRESENTATION('',(#939),#943);
#939 = LINE('',#940,#941);
#940 = CARTESIAN_POINT('',(6.28318530718,-0.));
#941 = VECTOR('',#942,1.);
#942 = DIRECTION('',(0.,1.));
#943 = ( GEOMETRIC_REPRESENTATION_CONTEXT(2) 
PARAMETRIC_REPRESENTATION_CONTEXT() REPRESENTATION_CONTEXT('2D SPACE',''
  ) );
#944 = PCURVE('',#548,#945);
#945 = DEFINITIONAL_REPRESENTATION('',(#946),#950);
#946 = LINE('',#947,#948);
#947 = CARTESIAN_POINT('',(0.,-0.));
#948 = VECTOR('',#949,1.);
#949 = DIRECTION('',(0.,1.));
#950 = ( GEOMETRIC_REPRESENTATION_CONTEXT(2) 
PARAMETRIC_REPRESENTATION_CONTEXT() REPRESENTATION_CONTEXT('2D SPACE',''
  ) );
#951 = ORIENTED_EDGE('',*,*,#764,.T.);
#952 = ORIENTED_EDGE('',*,*,#931,.T.);
#953 = ADVANCED_FACE('',(#954),#580,.T.);
#954 = FACE_BOUND('',#955,.T.);
#955 = EDGE_LOOP('',(#956));
#956 = ORIENTED_EDGE('',*,*,#563,.T.);
#957 = ( GEOMETRIC_REPRESENTATION_CONTEXT(3) 
GLOBAL_UNCERTAINTY_ASSIGNED_CONTEXT((#961)) GLOBAL_UNIT_ASSIGNED_CONTEXT
((#958,#959,#960)) REPRESENTATION_CONTEXT('Context #1',
  '3D Context with UNIT and UNCERTAINTY') );
#958 = ( LENGTH_UNIT() NAMED_UNIT(*) SI_UNIT(.MILLI.,.METRE.) );
#959 = ( NAMED_UNIT(*) PLANE_ANGLE_UNIT() SI_UNIT($,.RADIAN.) );
#960 = ( NAMED_UNIT(*) SI_UNIT($,.STERADIAN.) SOLID_ANGLE_UNIT() );
#961 = UNCERTAINTY_MEASURE_WITH_UNIT(LENGTH_MEASURE(1.E-07),#958,
  'distance_accuracy_value','confusion accuracy');
#962 = PRODUCT_RELATED_PRODUCT_CATEGORY('part',$,(#7));
ENDSEC;
END-ISO-10303-21;
