solid OpenSCAD_Model
  facet normal -0.991444 0.130535 0
    outer loop
      vertex 0 166 0
      vertex 0.17037 167.294 4
      vertex 0.17037 167.294 0
    endloop
  endfacet
  facet normal -0.991444 0.130535 0
    outer loop
      vertex 0.17037 167.294 4
      vertex 0 166 0
      vertex 0 166 4
    endloop
  endfacet
  facet normal -1 0 0
    outer loop
      vertex 0 166 0
      vertex 0 5 0
      vertex 0 166 4
    endloop
  endfacet
  facet normal -1 0 0
    outer loop
      vertex 0 166 4
      vertex 0 171 8
      vertex 0 171 4
    endloop
  endfacet
  facet normal -1 0 0
    outer loop
      vertex 0 5 4
      vertex 0 166 4
      vertex 0 5 0
    endloop
  endfacet
  facet normal -1 0 0
    outer loop
      vertex 0 166 4
      vertex 0 5 4
      vertex 0 171 8
    endloop
  endfacet
  facet normal -1 0 0
    outer loop
      vertex 0 0 8
      vertex 0 5 4
      vertex 0 0 4
    endloop
  endfacet
  facet normal -1 0 0
    outer loop
      vertex 0 5 4
      vertex 0 0 8
      vertex 0 171 8
    endloop
  endfacet
  facet normal 0.382658 -0.92389 0
    outer loop
      vertex 145.294 0.17037 0
      vertex 146.5 0.669872 8
      vertex 145.294 0.17037 8
    endloop
  endfacet
  facet normal 0.382658 -0.92389 0
    outer loop
      vertex 146.5 0.669872 8
      vertex 145.294 0.17037 0
      vertex 146.5 0.669872 0
    endloop
  endfacet
  facet normal 0 -1 0
    outer loop
      vertex 5 0 4
      vertex 37.5 0 8
      vertex 0 0 8
    endloop
  endfacet
  facet normal 0 -1 -0
    outer loop
      vertex 37.5 0 8
      vertex 5 0 4
      vertex 37.5 0 7.8
    endloop
  endfacet
  facet normal 0 -1 0
    outer loop
      vertex 5 0 4
      vertex 0 0 8
      vertex 0 0 4
    endloop
  endfacet
  facet normal 0 -1 0
    outer loop
      vertex 111.5 0 7.8
      vertex 144 0 8
      vertex 111.5 0 8
    endloop
  endfacet
  facet normal 0 -1 0
    outer loop
      vertex 5 0 0
      vertex 37.5 0 7.8
      vertex 5 0 4
    endloop
  endfacet
  facet normal 0 -1 -0
    outer loop
      vertex 37.5 0 7.8
      vertex 5 0 0
      vertex 111.5 0 7.8
    endloop
  endfacet
  facet normal 0 -1 -0
    outer loop
      vertex 111.5 0 7.8
      vertex 5 0 0
      vertex 144 0 0
    endloop
  endfacet
  facet normal 0 -1 0
    outer loop
      vertex 111.5 0 7.8
      vertex 144 0 0
      vertex 144 0 8
    endloop
  endfacet
  facet normal 1 -0 0
    outer loop
      vertex 149 5 8
      vertex 149 166 0
      vertex 149 166 8
    endloop
  endfacet
  facet normal 1 0 0
    outer loop
      vertex 149 166 0
      vertex 149 5 8
      vertex 149 5 0
    endloop
  endfacet
  facet normal -0.991445 -0.130525 0
    outer loop
      vertex 0.17037 3.7059 0
      vertex 0 5 4
      vertex 0 5 0
    endloop
  endfacet
  facet normal -0.991445 -0.130525 0
    outer loop
      vertex 0 5 4
      vertex 0.17037 3.7059 0
      vertex 0.17037 3.7059 4
    endloop
  endfacet
  facet normal 0 1 0
    outer loop
      vertex 144 171 8
      vertex 5 171 4
      vertex 0 171 8
    endloop
  endfacet
  facet normal 0 1 -0
    outer loop
      vertex 144 171 0
      vertex 5 171 4
      vertex 144 171 8
    endloop
  endfacet
  facet normal 0 1 0
    outer loop
      vertex 5 171 4
      vertex 144 171 0
      vertex 5 171 0
    endloop
  endfacet
  facet normal 0 1 0
    outer loop
      vertex 0 171 8
      vertex 5 171 4
      vertex 0 171 4
    endloop
  endfacet
  facet normal -0.923879 -0.382685 0
    outer loop
      vertex 0.669872 2.5 0
      vertex 0.17037 3.7059 4
      vertex 0.17037 3.7059 0
    endloop
  endfacet
  facet normal -0.923879 -0.382685 0
    outer loop
      vertex 0.17037 3.7059 4
      vertex 0.669872 2.5 0
      vertex 0.669872 2.5 4
    endloop
  endfacet
  facet normal 0.608303 0.793705 -0
    outer loop
      vertex 147.536 169.536 0
      vertex 146.5 170.33 8
      vertex 147.536 169.536 8
    endloop
  endfacet
  facet normal 0.608303 0.793705 0
    outer loop
      vertex 146.5 170.33 8
      vertex 147.536 169.536 0
      vertex 146.5 170.33 0
    endloop
  endfacet
  facet normal -0.608477 0.793572 0
    outer loop
      vertex 2.5 170.33 0
      vertex 1.46447 169.536 4
      vertex 2.5 170.33 4
    endloop
  endfacet
  facet normal -0.608477 0.793572 0
    outer loop
      vertex 1.46447 169.536 4
      vertex 2.5 170.33 0
      vertex 1.46447 169.536 0
    endloop
  endfacet
  facet normal -0.79335 -0.608765 0
    outer loop
      vertex 1.46447 1.46447 0
      vertex 0.669872 2.5 4
      vertex 0.669872 2.5 0
    endloop
  endfacet
  facet normal -0.79335 -0.608765 0
    outer loop
      vertex 0.669872 2.5 4
      vertex 1.46447 1.46447 0
      vertex 1.46447 1.46447 4
    endloop
  endfacet
  facet normal -0.92389 0.382658 0
    outer loop
      vertex 0.17037 167.294 0
      vertex 0.669872 168.5 4
      vertex 0.669872 168.5 0
    endloop
  endfacet
  facet normal -0.92389 0.382658 0
    outer loop
      vertex 0.669872 168.5 4
      vertex 0.17037 167.294 0
      vertex 0.17037 167.294 4
    endloop
  endfacet
  facet normal 0.923744 -0.38301 0
    outer loop
      vertex 148.33 2.5 8
      vertex 148.83 3.7059 0
      vertex 148.83 3.7059 8
    endloop
  endfacet
  facet normal 0.923744 -0.38301 0
    outer loop
      vertex 148.83 3.7059 0
      vertex 148.33 2.5 8
      vertex 148.33 2.5 0
    endloop
  endfacet
  facet normal 0.608591 -0.793484 0
    outer loop
      vertex 146.5 0.669872 0
      vertex 147.536 1.46447 8
      vertex 146.5 0.669872 8
    endloop
  endfacet
  facet normal 0.608591 -0.793484 0
    outer loop
      vertex 147.536 1.46447 8
      vertex 146.5 0.669872 0
      vertex 147.536 1.46447 0
    endloop
  endfacet
  facet normal 0.130535 -0.991444 0
    outer loop
      vertex 144 0 0
      vertex 145.294 0.17037 8
      vertex 144 0 8
    endloop
  endfacet
  facet normal 0.130535 -0.991444 0
    outer loop
      vertex 145.294 0.17037 8
      vertex 144 0 0
      vertex 145.294 0.17037 0
    endloop
  endfacet
  facet normal 0.991482 -0.130246 0
    outer loop
      vertex 148.83 3.7059 8
      vertex 149 5 0
      vertex 149 5 8
    endloop
  endfacet
  facet normal 0.991482 -0.130246 0
    outer loop
      vertex 149 5 0
      vertex 148.83 3.7059 8
      vertex 148.83 3.7059 0
    endloop
  endfacet
  facet normal 0.130256 0.99148 -0
    outer loop
      vertex 145.294 170.83 0
      vertex 144 171 8
      vertex 145.294 170.83 8
    endloop
  endfacet
  facet normal 0.130256 0.99148 0
    outer loop
      vertex 144 171 8
      vertex 145.294 170.83 0
      vertex 144 171 0
    endloop
  endfacet
  facet normal -0.793484 0.608591 0
    outer loop
      vertex 0.669872 168.5 0
      vertex 1.46447 169.536 4
      vertex 1.46447 169.536 0
    endloop
  endfacet
  facet normal -0.793484 0.608591 0
    outer loop
      vertex 1.46447 169.536 4
      vertex 0.669872 168.5 0
      vertex 0.669872 168.5 4
    endloop
  endfacet
  facet normal -0.382685 -0.923879 0
    outer loop
      vertex 2.5 0.669872 0
      vertex 3.7059 0.17037 4
      vertex 2.5 0.669872 4
    endloop
  endfacet
  facet normal -0.382685 -0.923879 -0
    outer loop
      vertex 3.7059 0.17037 4
      vertex 2.5 0.669872 0
      vertex 3.7059 0.17037 0
    endloop
  endfacet
  facet normal 0.793705 0.608303 0
    outer loop
      vertex 148.33 168.5 8
      vertex 147.536 169.536 0
      vertex 147.536 169.536 8
    endloop
  endfacet
  facet normal 0.793705 0.608303 0
    outer loop
      vertex 147.536 169.536 0
      vertex 148.33 168.5 8
      vertex 148.33 168.5 0
    endloop
  endfacet
  facet normal 0.793572 -0.608477 0
    outer loop
      vertex 147.536 1.46447 8
      vertex 148.33 2.5 0
      vertex 148.33 2.5 8
    endloop
  endfacet
  facet normal 0.793572 -0.608477 0
    outer loop
      vertex 148.33 2.5 0
      vertex 147.536 1.46447 8
      vertex 147.536 1.46447 0
    endloop
  endfacet
  facet normal -0.130525 -0.991445 0
    outer loop
      vertex 3.7059 0.17037 0
      vertex 5 0 4
      vertex 3.7059 0.17037 4
    endloop
  endfacet
  facet normal -0.130525 -0.991445 -0
    outer loop
      vertex 5 0 4
      vertex 3.7059 0.17037 0
      vertex 5 0 0
    endloop
  endfacet
  facet normal -0.608765 -0.79335 0
    outer loop
      vertex 1.46447 1.46447 0
      vertex 2.5 0.669872 4
      vertex 1.46447 1.46447 4
    endloop
  endfacet
  facet normal -0.608765 -0.79335 -0
    outer loop
      vertex 2.5 0.669872 4
      vertex 1.46447 1.46447 0
      vertex 2.5 0.669872 0
    endloop
  endfacet
  facet normal 0.923755 0.382983 0
    outer loop
      vertex 148.83 167.294 8
      vertex 148.33 168.5 0
      vertex 148.33 168.5 8
    endloop
  endfacet
  facet normal 0.923755 0.382983 0
    outer loop
      vertex 148.33 168.5 0
      vertex 148.83 167.294 8
      vertex 148.83 167.294 0
    endloop
  endfacet
  facet normal -0.130246 0.991482 0
    outer loop
      vertex 5 171 0
      vertex 3.7059 170.83 4
      vertex 5 171 4
    endloop
  endfacet
  facet normal -0.130246 0.991482 0
    outer loop
      vertex 3.7059 170.83 4
      vertex 5 171 0
      vertex 3.7059 170.83 0
    endloop
  endfacet
  facet normal 0.99148 0.130256 0
    outer loop
      vertex 149 166 8
      vertex 148.83 167.294 0
      vertex 148.83 167.294 8
    endloop
  endfacet
  facet normal 0.99148 0.130256 0
    outer loop
      vertex 148.83 167.294 0
      vertex 149 166 8
      vertex 149 166 0
    endloop
  endfacet
  facet normal 0 0 -1
    outer loop
      vertex 49.7653 10.2216 0
      vertex 8.99186 43.15 0
      vertex 99.2347 10.2216 0
    endloop
  endfacet
  facet normal 0 0 -1
    outer loop
      vertex 99.2347 10.2216 0
      vertex 9.22163 128.405 0
      vertex 9.3 129 0
    endloop
  endfacet
  facet normal 0 0 -1
    outer loop
      vertex 8.99186 127.85 0
      vertex 99.2347 10.2216 0
      vertex 8.99186 43.15 0
    endloop
  endfacet
  facet normal 0 0 -1
    outer loop
      vertex 99.2347 10.2216 0
      vertex 8.99186 127.85 0
      vertex 9.22163 128.405 0
    endloop
  endfacet
  facet normal 0 0 -1
    outer loop
      vertex 8.62634 43.6263 0
      vertex 8.99186 127.85 0
      vertex 8.99186 43.15 0
    endloop
  endfacet
  facet normal 0 0 -1
    outer loop
      vertex 8.62634 43.6263 0
      vertex 8.62634 127.374 0
      vertex 8.99186 127.85 0
    endloop
  endfacet
  facet normal 0 0 -1
    outer loop
      vertex 8.15 43.9919 0
      vertex 8.62634 127.374 0
      vertex 8.62634 43.6263 0
    endloop
  endfacet
  facet normal 0 0 -1
    outer loop
      vertex 8.15 43.9919 0
      vertex 8.15 127.008 0
      vertex 8.62634 127.374 0
    endloop
  endfacet
  facet normal 0 0 -1
    outer loop
      vertex 7.59528 44.2216 0
      vertex 8.15 127.008 0
      vertex 8.15 43.9919 0
    endloop
  endfacet
  facet normal 0 0 -1
    outer loop
      vertex 7.59528 44.2216 0
      vertex 7.59528 126.778 0
      vertex 8.15 127.008 0
    endloop
  endfacet
  facet normal 0 0 -1
    outer loop
      vertex 7 44.3 0
      vertex 7.59528 126.778 0
      vertex 7.59528 44.2216 0
    endloop
  endfacet
  facet normal 0 0 -1
    outer loop
      vertex 7 44.3 0
      vertex 7 126.7 0
      vertex 7.59528 126.778 0
    endloop
  endfacet
  facet normal 0 0 -1
    outer loop
      vertex 6.40472 44.2216 0
      vertex 7 126.7 0
      vertex 7 44.3 0
    endloop
  endfacet
  facet normal 0 0 -1
    outer loop
      vertex 6.40472 44.2216 0
      vertex 6.40472 126.778 0
      vertex 7 126.7 0
    endloop
  endfacet
  facet normal 0 0 -1
    outer loop
      vertex 5.85 43.9919 0
      vertex 6.40472 126.778 0
      vertex 6.40472 44.2216 0
    endloop
  endfacet
  facet normal 0 0 -1
    outer loop
      vertex 5.85 43.9919 0
      vertex 5.85 127.008 0
      vertex 6.40472 126.778 0
    endloop
  endfacet
  facet normal 0 0 -1
    outer loop
      vertex 5.37365 43.6263 0
      vertex 5.85 127.008 0
      vertex 5.85 43.9919 0
    endloop
  endfacet
  facet normal 0 0 -1
    outer loop
      vertex 5.37365 43.6263 0
      vertex 5.37365 127.374 0
      vertex 5.85 127.008 0
    endloop
  endfacet
  facet normal 0 0 -1
    outer loop
      vertex 5.00814 43.15 0
      vertex 5.37365 127.374 0
      vertex 5.37365 43.6263 0
    endloop
  endfacet
  facet normal 0 0 -1
    outer loop
      vertex 5.00814 43.15 0
      vertex 5.00814 127.85 0
      vertex 5.37365 127.374 0
    endloop
  endfacet
  facet normal 0 0 -1
    outer loop
      vertex 4.77837 42.5953 0
      vertex 5.00814 127.85 0
      vertex 5.00814 43.15 0
    endloop
  endfacet
  facet normal 0 0 -1
    outer loop
      vertex 4.77837 42.5953 0
      vertex 4.77837 128.405 0
      vertex 5.00814 127.85 0
    endloop
  endfacet
  facet normal 0 0 -1
    outer loop
      vertex 4.7 42 0
      vertex 4.77837 128.405 0
      vertex 4.77837 42.5953 0
    endloop
  endfacet
  facet normal -0 0 -1
    outer loop
      vertex 4.77837 128.405 0
      vertex 4.7 42 0
      vertex 4.7 129 0
    endloop
  endfacet
  facet normal 0 0 -1
    outer loop
      vertex 144 0 0
      vertex 149 5 0
      vertex 148.83 3.7059 0
    endloop
  endfacet
  facet normal 0 0 -1
    outer loop
      vertex 149 5 0
      vertex 100.98 9.99186 0
      vertex 149 166 0
    endloop
  endfacet
  facet normal 0 0 -1
    outer loop
      vertex 144 0 0
      vertex 148.83 3.7059 0
      vertex 148.33 2.5 0
    endloop
  endfacet
  facet normal 0 0 -1
    outer loop
      vertex 100.425 10.2216 0
      vertex 149 166 0
      vertex 100.98 9.99186 0
    endloop
  endfacet
  facet normal 0 0 -1
    outer loop
      vertex 144 0 0
      vertex 148.33 2.5 0
      vertex 147.536 1.46447 0
    endloop
  endfacet
  facet normal 0 0 -1
    outer loop
      vertex 99.83 10.3 0
      vertex 149 166 0
      vertex 100.425 10.2216 0
    endloop
  endfacet
  facet normal 0 0 -1
    outer loop
      vertex 144 0 0
      vertex 147.536 1.46447 0
      vertex 146.5 0.669872 0
    endloop
  endfacet
  facet normal 0 0 -1
    outer loop
      vertex 9.3 129 0
      vertex 149 166 0
      vertex 99.83 10.3 0
    endloop
  endfacet
  facet normal 0 0 -1
    outer loop
      vertex 144 0 0
      vertex 146.5 0.669872 0
      vertex 145.294 0.17037 0
    endloop
  endfacet
  facet normal 0 0 -1
    outer loop
      vertex 149 166 0
      vertex 144 171 0
      vertex 148.83 167.294 0
    endloop
  endfacet
  facet normal -0 0 -1
    outer loop
      vertex 149 5 0
      vertex 144 0 0
      vertex 101.822 9.15 0
    endloop
  endfacet
  facet normal 0 0 -1
    outer loop
      vertex 148.33 168.5 0
      vertex 144 171 0
      vertex 147.536 169.536 0
    endloop
  endfacet
  facet normal 0 0 -1
    outer loop
      vertex 102.052 8.59528 0
      vertex 144 0 0
      vertex 102.13 8 0
    endloop
  endfacet
  facet normal 0 0 -1
    outer loop
      vertex 144 0 0
      vertex 102.052 7.40472 0
      vertex 102.13 8 0
    endloop
  endfacet
  facet normal 0 0 -1
    outer loop
      vertex 144 0 0
      vertex 101.822 6.85 0
      vertex 102.052 7.40472 0
    endloop
  endfacet
  facet normal 0 0 -1
    outer loop
      vertex 144 0 0
      vertex 101.456 6.37365 0
      vertex 101.822 6.85 0
    endloop
  endfacet
  facet normal 0 0 -1
    outer loop
      vertex 144 0 0
      vertex 100.98 6.00814 0
      vertex 101.456 6.37365 0
    endloop
  endfacet
  facet normal 0 0 -1
    outer loop
      vertex 144 0 0
      vertex 100.425 5.77837 0
      vertex 100.98 6.00814 0
    endloop
  endfacet
  facet normal 0 0 -1
    outer loop
      vertex 144 0 0
      vertex 99.83 5.7 0
      vertex 100.425 5.77837 0
    endloop
  endfacet
  facet normal 0 0 -1
    outer loop
      vertex 97.6084 7.40472 0
      vertex 51.47 8 0
      vertex 97.53 8 0
    endloop
  endfacet
  facet normal 0 0 -1
    outer loop
      vertex 51.3916 7.40472 0
      vertex 97.6084 7.40472 0
      vertex 97.8381 6.85 0
    endloop
  endfacet
  facet normal 0 0 -1
    outer loop
      vertex 51.1619 6.85 0
      vertex 97.8381 6.85 0
      vertex 98.2037 6.37365 0
    endloop
  endfacet
  facet normal 0 0 -1
    outer loop
      vertex 50.7963 6.37365 0
      vertex 98.2037 6.37365 0
      vertex 98.68 6.00814 0
    endloop
  endfacet
  facet normal 0 0 -1
    outer loop
      vertex 50.32 6.00814 0
      vertex 98.68 6.00814 0
      vertex 99.2347 5.77837 0
    endloop
  endfacet
  facet normal 0 0 -1
    outer loop
      vertex 49.7653 5.77837 0
      vertex 99.2347 5.77837 0
      vertex 99.83 5.7 0
    endloop
  endfacet
  facet normal 0 0 -1
    outer loop
      vertex 49.17 5.7 0
      vertex 99.83 5.7 0
      vertex 144 0 0
    endloop
  endfacet
  facet normal 0 0 -1
    outer loop
      vertex 97.6084 7.40472 0
      vertex 51.3916 7.40472 0
      vertex 51.47 8 0
    endloop
  endfacet
  facet normal 0 0 -1
    outer loop
      vertex 97.8381 6.85 0
      vertex 51.1619 6.85 0
      vertex 51.3916 7.40472 0
    endloop
  endfacet
  facet normal 0 0 -1
    outer loop
      vertex 98.2037 6.37365 0
      vertex 50.7963 6.37365 0
      vertex 51.1619 6.85 0
    endloop
  endfacet
  facet normal 0 0 -1
    outer loop
      vertex 98.68 6.00814 0
      vertex 50.32 6.00814 0
      vertex 50.7963 6.37365 0
    endloop
  endfacet
  facet normal 0 0 -1
    outer loop
      vertex 99.2347 5.77837 0
      vertex 49.7653 5.77837 0
      vertex 50.32 6.00814 0
    endloop
  endfacet
  facet normal 0 0 -1
    outer loop
      vertex 99.83 5.7 0
      vertex 49.17 5.7 0
      vertex 49.7653 5.77837 0
    endloop
  endfacet
  facet normal 0 0 -1
    outer loop
      vertex 5 0 0
      vertex 46.87 8 0
      vertex 46.9484 7.40472 0
    endloop
  endfacet
  facet normal 0 0 -1
    outer loop
      vertex 5 0 0
      vertex 46.9484 7.40472 0
      vertex 47.1781 6.85 0
    endloop
  endfacet
  facet normal 0 0 -1
    outer loop
      vertex 5 0 0
      vertex 47.1781 6.85 0
      vertex 47.5437 6.37365 0
    endloop
  endfacet
  facet normal 0 0 -1
    outer loop
      vertex 46.87 8 0
      vertex 9.22163 41.4047 0
      vertex 9.3 42 0
    endloop
  endfacet
  facet normal 0 0 -1
    outer loop
      vertex 46.87 8 0
      vertex 8.99186 40.85 0
      vertex 9.22163 41.4047 0
    endloop
  endfacet
  facet normal 0 0 -1
    outer loop
      vertex 46.87 8 0
      vertex 8.62634 40.3737 0
      vertex 8.99186 40.85 0
    endloop
  endfacet
  facet normal 0 0 -1
    outer loop
      vertex 46.87 8 0
      vertex 8.15 40.0081 0
      vertex 8.62634 40.3737 0
    endloop
  endfacet
  facet normal -0 0 -1
    outer loop
      vertex 46.87 8 0
      vertex 5 0 0
      vertex 8.15 40.0081 0
    endloop
  endfacet
  facet normal 0 0 -1
    outer loop
      vertex 0 5 0
      vertex 8.15 40.0081 0
      vertex 5 0 0
    endloop
  endfacet
  facet normal 0 0 -1
    outer loop
      vertex 8.15 40.0081 0
      vertex 0 5 0
      vertex 7.59528 39.7784 0
    endloop
  endfacet
  facet normal 0 0 -1
    outer loop
      vertex 7.59528 39.7784 0
      vertex 0 5 0
      vertex 7 39.7 0
    endloop
  endfacet
  facet normal -0 0 -1
    outer loop
      vertex 7 39.7 0
      vertex 0 5 0
      vertex 6.40472 39.7784 0
    endloop
  endfacet
  facet normal 0 0 -1
    outer loop
      vertex 5 0 0
      vertex 49.17 5.7 0
      vertex 144 0 0
    endloop
  endfacet
  facet normal 0 0 -1
    outer loop
      vertex 5 0 0
      vertex 48.5747 5.77837 0
      vertex 49.17 5.7 0
    endloop
  endfacet
  facet normal 0 0 -1
    outer loop
      vertex 5 0 0
      vertex 48.02 6.00814 0
      vertex 48.5747 5.77837 0
    endloop
  endfacet
  facet normal 0 0 -1
    outer loop
      vertex 5 0 0
      vertex 47.5437 6.37365 0
      vertex 48.02 6.00814 0
    endloop
  endfacet
  facet normal -0 0 -1
    outer loop
      vertex 6.40472 39.7784 0
      vertex 0 5 0
      vertex 5.85 40.0081 0
    endloop
  endfacet
  facet normal -0 0 -1
    outer loop
      vertex 5.85 40.0081 0
      vertex 0 5 0
      vertex 5.37365 40.3737 0
    endloop
  endfacet
  facet normal -0 0 -1
    outer loop
      vertex 5.37365 40.3737 0
      vertex 0 5 0
      vertex 5.00814 40.85 0
    endloop
  endfacet
  facet normal -0 0 -1
    outer loop
      vertex 5.00814 40.85 0
      vertex 0 5 0
      vertex 4.77837 41.4047 0
    endloop
  endfacet
  facet normal -0 0 -1
    outer loop
      vertex 4.77837 41.4047 0
      vertex 0 5 0
      vertex 4.7 42 0
    endloop
  endfacet
  facet normal 0 0 -1
    outer loop
      vertex 0 5 0
      vertex 5 0 0
      vertex 3.7059 0.17037 0
    endloop
  endfacet
  facet normal 0 0 -1
    outer loop
      vertex 101.822 9.15 0
      vertex 144 0 0
      vertex 102.052 8.59528 0
    endloop
  endfacet
  facet normal 0 0 -1
    outer loop
      vertex 149 5 0
      vertex 101.822 9.15 0
      vertex 101.456 9.62634 0
    endloop
  endfacet
  facet normal 0 0 -1
    outer loop
      vertex 149 5 0
      vertex 101.456 9.62634 0
      vertex 100.98 9.99186 0
    endloop
  endfacet
  facet normal 0 0 -1
    outer loop
      vertex 146.5 170.33 0
      vertex 144 171 0
      vertex 145.294 170.83 0
    endloop
  endfacet
  facet normal 0 0 -1
    outer loop
      vertex 147.536 169.536 0
      vertex 144 171 0
      vertex 146.5 170.33 0
    endloop
  endfacet
  facet normal 0 0 -1
    outer loop
      vertex 148.83 167.294 0
      vertex 144 171 0
      vertex 148.33 168.5 0
    endloop
  endfacet
  facet normal 0 0 -1
    outer loop
      vertex 9.3 129 0
      vertex 99.83 10.3 0
      vertex 99.2347 10.2216 0
    endloop
  endfacet
  facet normal 0 0 -1
    outer loop
      vertex 49.7653 10.2216 0
      vertex 99.2347 10.2216 0
      vertex 98.68 9.99186 0
    endloop
  endfacet
  facet normal 0 0 -1
    outer loop
      vertex 50.32 9.99186 0
      vertex 98.68 9.99186 0
      vertex 98.2037 9.62634 0
    endloop
  endfacet
  facet normal 0 0 -1
    outer loop
      vertex 50.7963 9.62634 0
      vertex 98.2037 9.62634 0
      vertex 97.8381 9.15 0
    endloop
  endfacet
  facet normal 0 0 -1
    outer loop
      vertex 51.1619 9.15 0
      vertex 97.8381 9.15 0
      vertex 97.6084 8.59528 0
    endloop
  endfacet
  facet normal 0 0 -1
    outer loop
      vertex 51.47 8 0
      vertex 97.6084 8.59528 0
      vertex 97.53 8 0
    endloop
  endfacet
  facet normal 0 0 -1
    outer loop
      vertex 51.3916 8.59528 0
      vertex 97.6084 8.59528 0
      vertex 51.47 8 0
    endloop
  endfacet
  facet normal 0 0 -1
    outer loop
      vertex 51.1619 9.15 0
      vertex 97.6084 8.59528 0
      vertex 51.3916 8.59528 0
    endloop
  endfacet
  facet normal 0 0 -1
    outer loop
      vertex 97.8381 9.15 0
      vertex 51.1619 9.15 0
      vertex 50.7963 9.62634 0
    endloop
  endfacet
  facet normal 0 0 -1
    outer loop
      vertex 98.2037 9.62634 0
      vertex 50.7963 9.62634 0
      vertex 50.32 9.99186 0
    endloop
  endfacet
  facet normal 0 0 -1
    outer loop
      vertex 98.68 9.99186 0
      vertex 50.32 9.99186 0
      vertex 49.7653 10.2216 0
    endloop
  endfacet
  facet normal 0 0 -1
    outer loop
      vertex 49.17 10.3 0
      vertex 9.22163 42.5953 0
      vertex 49.7653 10.2216 0
    endloop
  endfacet
  facet normal 0 0 -1
    outer loop
      vertex 9.22163 42.5953 0
      vertex 49.17 10.3 0
      vertex 9.3 42 0
    endloop
  endfacet
  facet normal 0 0 -1
    outer loop
      vertex 9.3 42 0
      vertex 49.17 10.3 0
      vertex 48.5747 10.2216 0
    endloop
  endfacet
  facet normal 0 0 -1
    outer loop
      vertex 9.3 42 0
      vertex 48.5747 10.2216 0
      vertex 48.02 9.99186 0
    endloop
  endfacet
  facet normal 0 0 -1
    outer loop
      vertex 9.3 42 0
      vertex 48.02 9.99186 0
      vertex 47.5437 9.62634 0
    endloop
  endfacet
  facet normal 0 0 -1
    outer loop
      vertex 9.3 42 0
      vertex 47.5437 9.62634 0
      vertex 47.1781 9.15 0
    endloop
  endfacet
  facet normal 0 0 -1
    outer loop
      vertex 9.3 42 0
      vertex 46.9484 8.59528 0
      vertex 46.87 8 0
    endloop
  endfacet
  facet normal 0 0 -1
    outer loop
      vertex 9.3 42 0
      vertex 47.1781 9.15 0
      vertex 46.9484 8.59528 0
    endloop
  endfacet
  facet normal 0 0 -1
    outer loop
      vertex 8.99186 43.15 0
      vertex 49.7653 10.2216 0
      vertex 9.22163 42.5953 0
    endloop
  endfacet
  facet normal -0 0 -1
    outer loop
      vertex 149 166 0
      vertex 9.3 129 0
      vertex 144 171 0
    endloop
  endfacet
  facet normal 0 0 -1
    outer loop
      vertex 9.22163 129.595 0
      vertex 144 171 0
      vertex 9.3 129 0
    endloop
  endfacet
  facet normal 0 0 -1
    outer loop
      vertex 8.99186 130.15 0
      vertex 144 171 0
      vertex 9.22163 129.595 0
    endloop
  endfacet
  facet normal 0 0 -1
    outer loop
      vertex 5 171 0
      vertex 8.99186 130.15 0
      vertex 8.62634 130.626 0
    endloop
  endfacet
  facet normal 0 0 -1
    outer loop
      vertex 5 171 0
      vertex 8.62634 130.626 0
      vertex 8.15 130.992 0
    endloop
  endfacet
  facet normal 0 0 -1
    outer loop
      vertex 0 166 0
      vertex 8.15 130.992 0
      vertex 7.59528 131.222 0
    endloop
  endfacet
  facet normal 0 0 -1
    outer loop
      vertex 0 166 0
      vertex 7.59528 131.222 0
      vertex 7 131.3 0
    endloop
  endfacet
  facet normal 0 0 -1
    outer loop
      vertex 0 166 0
      vertex 7 131.3 0
      vertex 6.40472 131.222 0
    endloop
  endfacet
  facet normal 0 0 -1
    outer loop
      vertex 8.99186 130.15 0
      vertex 5 171 0
      vertex 144 171 0
    endloop
  endfacet
  facet normal 0 0 -1
    outer loop
      vertex 0 166 0
      vertex 6.40472 131.222 0
      vertex 5.85 130.992 0
    endloop
  endfacet
  facet normal 0 0 -1
    outer loop
      vertex 0 166 0
      vertex 5.85 130.992 0
      vertex 5.37365 130.626 0
    endloop
  endfacet
  facet normal 0 0 -1
    outer loop
      vertex 0 166 0
      vertex 5.37365 130.626 0
      vertex 5.00814 130.15 0
    endloop
  endfacet
  facet normal 0 0 -1
    outer loop
      vertex 0 166 0
      vertex 5.00814 130.15 0
      vertex 4.77837 129.595 0
    endloop
  endfacet
  facet normal 0 0 -1
    outer loop
      vertex 0 166 0
      vertex 4.77837 129.595 0
      vertex 4.7 129 0
    endloop
  endfacet
  facet normal -0 0 -1
    outer loop
      vertex 4.7 42 0
      vertex 0 5 0
      vertex 4.7 129 0
    endloop
  endfacet
  facet normal 0 0 -1
    outer loop
      vertex 0 166 0
      vertex 4.7 129 0
      vertex 0 5 0
    endloop
  endfacet
  facet normal 0 0 -1
    outer loop
      vertex 0 5 0
      vertex 3.7059 0.17037 0
      vertex 2.5 0.669872 0
    endloop
  endfacet
  facet normal 0 0 -1
    outer loop
      vertex 8.15 130.992 0
      vertex 0 166 0
      vertex 5 171 0
    endloop
  endfacet
  facet normal 0 0 -1
    outer loop
      vertex 0 5 0
      vertex 2.5 0.669872 0
      vertex 1.46447 1.46447 0
    endloop
  endfacet
  facet normal 0 0 -1
    outer loop
      vertex 5 171 0
      vertex 0 166 0
      vertex 3.7059 170.83 0
    endloop
  endfacet
  facet normal 0 0 -1
    outer loop
      vertex 0 5 0
      vertex 1.46447 1.46447 0
      vertex 0.669872 2.5 0
    endloop
  endfacet
  facet normal 0 0 -1
    outer loop
      vertex 3.7059 170.83 0
      vertex 0 166 0
      vertex 2.5 170.33 0
    endloop
  endfacet
  facet normal 0 0 -1
    outer loop
      vertex 0 5 0
      vertex 0.669872 2.5 0
      vertex 0.17037 3.7059 0
    endloop
  endfacet
  facet normal 0 0 -1
    outer loop
      vertex 2.5 170.33 0
      vertex 0 166 0
      vertex 1.46447 169.536 0
    endloop
  endfacet
  facet normal 0 0 -1
    outer loop
      vertex 1.46447 169.536 0
      vertex 0 166 0
      vertex 0.669872 168.5 0
    endloop
  endfacet
  facet normal 0 0 -1
    outer loop
      vertex 0.669872 168.5 0
      vertex 0 166 0
      vertex 0.17037 167.294 0
    endloop
  endfacet
  facet normal -0.38301 0.923744 0
    outer loop
      vertex 3.7059 170.83 0
      vertex 2.5 170.33 4
      vertex 3.7059 170.83 4
    endloop
  endfacet
  facet normal -0.38301 0.923744 0
    outer loop
      vertex 2.5 170.33 4
      vertex 3.7059 170.83 0
      vertex 2.5 170.33 0
    endloop
  endfacet
  facet normal 0.382983 0.923755 -0
    outer loop
      vertex 146.5 170.33 0
      vertex 145.294 170.83 8
      vertex 146.5 170.33 8
    endloop
  endfacet
  facet normal 0.382983 0.923755 0
    outer loop
      vertex 145.294 170.83 8
      vertex 146.5 170.33 0
      vertex 145.294 170.83 0
    endloop
  endfacet
  facet normal -0 0 1
    outer loop
      vertex 9.22163 128.405 8
      vertex 9.3 42 8
      vertex 9.3 129 8
    endloop
  endfacet
  facet normal 0 0 1
    outer loop
      vertex 9.22163 128.405 8
      vertex 9.22163 42.5953 8
      vertex 9.3 42 8
    endloop
  endfacet
  facet normal -0 0 1
    outer loop
      vertex 8.99186 127.85 8
      vertex 9.22163 42.5953 8
      vertex 9.22163 128.405 8
    endloop
  endfacet
  facet normal 0 0 1
    outer loop
      vertex 8.99186 127.85 8
      vertex 8.99186 43.15 8
      vertex 9.22163 42.5953 8
    endloop
  endfacet
  facet normal -0 0 1
    outer loop
      vertex 8.62634 127.374 8
      vertex 8.99186 43.15 8
      vertex 8.99186 127.85 8
    endloop
  endfacet
  facet normal 0 0 1
    outer loop
      vertex 8.62634 127.374 8
      vertex 8.62634 43.6263 8
      vertex 8.99186 43.15 8
    endloop
  endfacet
  facet normal -0 0 1
    outer loop
      vertex 8.15 127.008 8
      vertex 8.62634 43.6263 8
      vertex 8.62634 127.374 8
    endloop
  endfacet
  facet normal 0 0 1
    outer loop
      vertex 8.15 127.008 8
      vertex 8.15 43.9919 8
      vertex 8.62634 43.6263 8
    endloop
  endfacet
  facet normal -0 0 1
    outer loop
      vertex 7.59528 126.778 8
      vertex 8.15 43.9919 8
      vertex 8.15 127.008 8
    endloop
  endfacet
  facet normal 0 0 1
    outer loop
      vertex 7.59528 126.778 8
      vertex 7.59528 44.2216 8
      vertex 8.15 43.9919 8
    endloop
  endfacet
  facet normal -0 0 1
    outer loop
      vertex 7 126.7 8
      vertex 7.59528 44.2216 8
      vertex 7.59528 126.778 8
    endloop
  endfacet
  facet normal 0 0 1
    outer loop
      vertex 7 126.7 8
      vertex 7 44.3 8
      vertex 7.59528 44.2216 8
    endloop
  endfacet
  facet normal 0 0 1
    outer loop
      vertex 6.40472 126.778 8
      vertex 7 44.3 8
      vertex 7 126.7 8
    endloop
  endfacet
  facet normal 0 0 1
    outer loop
      vertex 6.40472 126.778 8
      vertex 6.40472 44.2216 8
      vertex 7 44.3 8
    endloop
  endfacet
  facet normal 0 0 1
    outer loop
      vertex 5.85 127.008 8
      vertex 6.40472 44.2216 8
      vertex 6.40472 126.778 8
    endloop
  endfacet
  facet normal 0 0 1
    outer loop
      vertex 5.85 127.008 8
      vertex 5.85 43.9919 8
      vertex 6.40472 44.2216 8
    endloop
  endfacet
  facet normal 0 0 1
    outer loop
      vertex 5.37365 127.374 8
      vertex 5.85 43.9919 8
      vertex 5.85 127.008 8
    endloop
  endfacet
  facet normal 0 0 1
    outer loop
      vertex 5.37365 127.374 8
      vertex 5.37365 43.6263 8
      vertex 5.85 43.9919 8
    endloop
  endfacet
  facet normal 0 0 1
    outer loop
      vertex 5.00814 127.85 8
      vertex 5.37365 43.6263 8
      vertex 5.37365 127.374 8
    endloop
  endfacet
  facet normal 0 0 1
    outer loop
      vertex 5.00814 127.85 8
      vertex 5.00814 43.15 8
      vertex 5.37365 43.6263 8
    endloop
  endfacet
  facet normal 0 0 1
    outer loop
      vertex 4.77837 128.405 8
      vertex 5.00814 43.15 8
      vertex 5.00814 127.85 8
    endloop
  endfacet
  facet normal 0 0 1
    outer loop
      vertex 4.77837 128.405 8
      vertex 4.77837 42.5953 8
      vertex 5.00814 43.15 8
    endloop
  endfacet
  facet normal 0 0 1
    outer loop
      vertex 4.7 129 8
      vertex 4.77837 42.5953 8
      vertex 4.77837 128.405 8
    endloop
  endfacet
  facet normal 0 0 1
    outer loop
      vertex 4.77837 42.5953 8
      vertex 4.7 129 8
      vertex 4.7 42 8
    endloop
  endfacet
  facet normal 0 0 1
    outer loop
      vertex 129 85.5 8
      vertex 111.5 12.49 8
      vertex 129 18 8
    endloop
  endfacet
  facet normal 0 0 1
    outer loop
      vertex 129 85.5 8
      vertex 37.5 12.49 8
      vertex 111.5 12.49 8
    endloop
  endfacet
  facet normal -0 0 1
    outer loop
      vertex 18 85.5 8
      vertex 37.5 12.49 8
      vertex 129 85.5 8
    endloop
  endfacet
  facet normal -0 0 1
    outer loop
      vertex 15 18 8
      vertex 37.5 12.49 8
      vertex 18 85.5 8
    endloop
  endfacet
  facet normal 0 0 1
    outer loop
      vertex 15 18 8
      vertex 18 85.5 8
      vertex 15 153 8
    endloop
  endfacet
  facet normal 0 0 1
    outer loop
      vertex 37.5 12.49 8
      vertex 15 18 8
      vertex 37.5 0 8
    endloop
  endfacet
  facet normal 0 0 1
    outer loop
      vertex 0 0 8
      vertex 15 18 8
      vertex 10 18 8
    endloop
  endfacet
  facet normal -0 0 1
    outer loop
      vertex 9.3 42 8
      vertex 10 18 8
      vertex 9.3 129 8
    endloop
  endfacet
  facet normal -0 0 1
    outer loop
      vertex 9.22163 41.4047 8
      vertex 10 18 8
      vertex 9.3 42 8
    endloop
  endfacet
  facet normal -0 0 1
    outer loop
      vertex 8.99186 40.85 8
      vertex 10 18 8
      vertex 9.22163 41.4047 8
    endloop
  endfacet
  facet normal -0 0 1
    outer loop
      vertex 8.62634 40.3737 8
      vertex 10 18 8
      vertex 8.99186 40.85 8
    endloop
  endfacet
  facet normal -0 0 1
    outer loop
      vertex 8.15 40.0081 8
      vertex 10 18 8
      vertex 8.62634 40.3737 8
    endloop
  endfacet
  facet normal -0 0 1
    outer loop
      vertex 7.59528 39.7784 8
      vertex 10 18 8
      vertex 8.15 40.0081 8
    endloop
  endfacet
  facet normal -0 0 1
    outer loop
      vertex 7 39.7 8
      vertex 10 18 8
      vertex 7.59528 39.7784 8
    endloop
  endfacet
  facet normal 0 0 1
    outer loop
      vertex 6.40472 39.7784 8
      vertex 10 18 8
      vertex 7 39.7 8
    endloop
  endfacet
  facet normal 0 0 1
    outer loop
      vertex 5.85 40.0081 8
      vertex 10 18 8
      vertex 6.40472 39.7784 8
    endloop
  endfacet
  facet normal 0 0 1
    outer loop
      vertex 5.37365 40.3737 8
      vertex 10 18 8
      vertex 5.85 40.0081 8
    endloop
  endfacet
  facet normal 0 0 1
    outer loop
      vertex 5.00814 40.85 8
      vertex 10 18 8
      vertex 5.37365 40.3737 8
    endloop
  endfacet
  facet normal 0 0 1
    outer loop
      vertex 0 0 8
      vertex 5.00814 40.85 8
      vertex 4.77837 41.4047 8
    endloop
  endfacet
  facet normal 0 0 1
    outer loop
      vertex 15 18 8
      vertex 0 0 8
      vertex 37.5 0 8
    endloop
  endfacet
  facet normal 0 0 1
    outer loop
      vertex 5.00814 40.85 8
      vertex 0 0 8
      vertex 10 18 8
    endloop
  endfacet
  facet normal 0 0 1
    outer loop
      vertex 4.7 42 8
      vertex 0 0 8
      vertex 4.77837 41.4047 8
    endloop
  endfacet
  facet normal 0 0 1
    outer loop
      vertex 0 0 8
      vertex 4.7 42 8
      vertex 0 171 8
    endloop
  endfacet
  facet normal 0 0 1
    outer loop
      vertex 144 171 8
      vertex 149 166 8
      vertex 148.83 167.294 8
    endloop
  endfacet
  facet normal 0 0 1
    outer loop
      vertex 149 166 8
      vertex 134 153 8
      vertex 149 5 8
    endloop
  endfacet
  facet normal 0 0 1
    outer loop
      vertex 144 171 8
      vertex 148.83 167.294 8
      vertex 148.33 168.5 8
    endloop
  endfacet
  facet normal -0 0 1
    outer loop
      vertex 134 18 8
      vertex 149 5 8
      vertex 134 153 8
    endloop
  endfacet
  facet normal 0 0 1
    outer loop
      vertex 144 171 8
      vertex 148.33 168.5 8
      vertex 147.536 169.536 8
    endloop
  endfacet
  facet normal 0 -0 1
    outer loop
      vertex 144 0 8
      vertex 149 5 8
      vertex 134 18 8
    endloop
  endfacet
  facet normal 0 0 1
    outer loop
      vertex 144 171 8
      vertex 147.536 169.536 8
      vertex 146.5 170.33 8
    endloop
  endfacet
  facet normal 0 0 1
    outer loop
      vertex 149 5 8
      vertex 144 0 8
      vertex 148.83 3.7059 8
    endloop
  endfacet
  facet normal 0 0 1
    outer loop
      vertex 144 171 8
      vertex 146.5 170.33 8
      vertex 145.294 170.83 8
    endloop
  endfacet
  facet normal 0 0 1
    outer loop
      vertex 148.83 3.7059 8
      vertex 144 0 8
      vertex 148.33 2.5 8
    endloop
  endfacet
  facet normal 0 0 1
    outer loop
      vertex 149 166 8
      vertex 144 171 8
      vertex 134 153 8
    endloop
  endfacet
  facet normal 0 0 1
    outer loop
      vertex 148.33 2.5 8
      vertex 144 0 8
      vertex 147.536 1.46447 8
    endloop
  endfacet
  facet normal 0 0 1
    outer loop
      vertex 147.536 1.46447 8
      vertex 144 0 8
      vertex 146.5 0.669872 8
    endloop
  endfacet
  facet normal 0 0 1
    outer loop
      vertex 144 171 8
      vertex 129 153 8
      vertex 134 153 8
    endloop
  endfacet
  facet normal 0 0 1
    outer loop
      vertex 129 153 8
      vertex 18 90.5 8
      vertex 129 90.5 8
    endloop
  endfacet
  facet normal 0 0 1
    outer loop
      vertex 15 153 8
      vertex 129 153 8
      vertex 144 171 8
    endloop
  endfacet
  facet normal 0 0 1
    outer loop
      vertex 18 90.5 8
      vertex 15 153 8
      vertex 18 85.5 8
    endloop
  endfacet
  facet normal 0 0 1
    outer loop
      vertex 129 153 8
      vertex 15 153 8
      vertex 18 90.5 8
    endloop
  endfacet
  facet normal -0 0 1
    outer loop
      vertex 0 171 8
      vertex 15 153 8
      vertex 144 171 8
    endloop
  endfacet
  facet normal 0 0 1
    outer loop
      vertex 10 153 8
      vertex 9.3 129 8
      vertex 10 18 8
    endloop
  endfacet
  facet normal 0 0 1
    outer loop
      vertex 10 153 8
      vertex 9.22163 129.595 8
      vertex 9.3 129 8
    endloop
  endfacet
  facet normal 0 0 1
    outer loop
      vertex 10 153 8
      vertex 8.99186 130.15 8
      vertex 9.22163 129.595 8
    endloop
  endfacet
  facet normal 0 0 1
    outer loop
      vertex 10 153 8
      vertex 8.62634 130.626 8
      vertex 8.99186 130.15 8
    endloop
  endfacet
  facet normal 0 0 1
    outer loop
      vertex 10 153 8
      vertex 8.15 130.992 8
      vertex 8.62634 130.626 8
    endloop
  endfacet
  facet normal 0 0 1
    outer loop
      vertex 10 153 8
      vertex 7.59528 131.222 8
      vertex 8.15 130.992 8
    endloop
  endfacet
  facet normal 0 0 1
    outer loop
      vertex 10 153 8
      vertex 7 131.3 8
      vertex 7.59528 131.222 8
    endloop
  endfacet
  facet normal 0 0 1
    outer loop
      vertex 10 153 8
      vertex 6.40472 131.222 8
      vertex 7 131.3 8
    endloop
  endfacet
  facet normal 0 0 1
    outer loop
      vertex 10 153 8
      vertex 5.85 130.992 8
      vertex 6.40472 131.222 8
    endloop
  endfacet
  facet normal 0 0 1
    outer loop
      vertex 10 153 8
      vertex 5.37365 130.626 8
      vertex 5.85 130.992 8
    endloop
  endfacet
  facet normal 0 0 1
    outer loop
      vertex 10 153 8
      vertex 5.00814 130.15 8
      vertex 5.37365 130.626 8
    endloop
  endfacet
  facet normal 0 0 1
    outer loop
      vertex 0 171 8
      vertex 5.00814 130.15 8
      vertex 10 153 8
    endloop
  endfacet
  facet normal 0 0 1
    outer loop
      vertex 4.7 129 8
      vertex 0 171 8
      vertex 4.7 42 8
    endloop
  endfacet
  facet normal 0 0 1
    outer loop
      vertex 4.77837 129.595 8
      vertex 0 171 8
      vertex 4.7 129 8
    endloop
  endfacet
  facet normal 0 0 1
    outer loop
      vertex 5.00814 130.15 8
      vertex 0 171 8
      vertex 4.77837 129.595 8
    endloop
  endfacet
  facet normal 0 0 1
    outer loop
      vertex 15 153 8
      vertex 0 171 8
      vertex 10 153 8
    endloop
  endfacet
  facet normal 0 0 1
    outer loop
      vertex 146.5 0.669872 8
      vertex 144 0 8
      vertex 145.294 0.17037 8
    endloop
  endfacet
  facet normal -0 0 1
    outer loop
      vertex 129 18 8
      vertex 144 0 8
      vertex 134 18 8
    endloop
  endfacet
  facet normal 0 0 1
    outer loop
      vertex 111.5 0 8
      vertex 129 18 8
      vertex 111.5 12.49 8
    endloop
  endfacet
  facet normal 0 0 1
    outer loop
      vertex 129 18 8
      vertex 111.5 0 8
      vertex 144 0 8
    endloop
  endfacet
  facet normal 0 0 -1
    outer loop
      vertex 0 0 4
      vertex 3.7059 0.17037 4
      vertex 5 0 4
    endloop
  endfacet
  facet normal 0 0 -1
    outer loop
      vertex 0 0 4
      vertex 2.5 0.669872 4
      vertex 3.7059 0.17037 4
    endloop
  endfacet
  facet normal 0 0 -1
    outer loop
      vertex 0 0 4
      vertex 1.46447 1.46447 4
      vertex 2.5 0.669872 4
    endloop
  endfacet
  facet normal 0 0 -1
    outer loop
      vertex 0 0 4
      vertex 0.669872 2.5 4
      vertex 1.46447 1.46447 4
    endloop
  endfacet
  facet normal 0 0 -1
    outer loop
      vertex 0 0 4
      vertex 0.17037 3.7059 4
      vertex 0.669872 2.5 4
    endloop
  endfacet
  facet normal -0 0 -1
    outer loop
      vertex 0.17037 3.7059 4
      vertex 0 0 4
      vertex 0 5 4
    endloop
  endfacet
  facet normal 0 0 -1
    outer loop
      vertex 3.7059 170.83 4
      vertex 0 171 4
      vertex 5 171 4
    endloop
  endfacet
  facet normal 0 0 -1
    outer loop
      vertex 2.5 170.33 4
      vertex 0 171 4
      vertex 3.7059 170.83 4
    endloop
  endfacet
  facet normal 0 0 -1
    outer loop
      vertex 1.46447 169.536 4
      vertex 0 171 4
      vertex 2.5 170.33 4
    endloop
  endfacet
  facet normal 0 0 -1
    outer loop
      vertex 0.669872 168.5 4
      vertex 0 171 4
      vertex 1.46447 169.536 4
    endloop
  endfacet
  facet normal 0 0 -1
    outer loop
      vertex 0.17037 167.294 4
      vertex 0 171 4
      vertex 0.669872 168.5 4
    endloop
  endfacet
  facet normal 0 0 -1
    outer loop
      vertex 0 171 4
      vertex 0.17037 167.294 4
      vertex 0 166 4
    endloop
  endfacet
  facet normal 1 -0 0
    outer loop
      vertex 15 18 13
      vertex 15 153 8
      vertex 15 153 13
    endloop
  endfacet
  facet normal 1 0 0
    outer loop
      vertex 15 153 8
      vertex 15 18 13
      vertex 15 18 8
    endloop
  endfacet
  facet normal -0 0 1
    outer loop
      vertex 10 153 13
      vertex 15 18 13
      vertex 15 153 13
    endloop
  endfacet
  facet normal 0 0 1
    outer loop
      vertex 15 18 13
      vertex 10 153 13
      vertex 10 18 13
    endloop
  endfacet
  facet normal -1 0 0
    outer loop
      vertex 10 18 8
      vertex 10 153 13
      vertex 10 153 8
    endloop
  endfacet
  facet normal -1 -0 0
    outer loop
      vertex 10 153 13
      vertex 10 18 8
      vertex 10 18 13
    endloop
  endfacet
  facet normal 0 1 -0
    outer loop
      vertex 15 153 8
      vertex 10 153 13
      vertex 15 153 13
    endloop
  endfacet
  facet normal 0 1 0
    outer loop
      vertex 10 153 13
      vertex 15 153 8
      vertex 10 153 8
    endloop
  endfacet
  facet normal 0 -1 0
    outer loop
      vertex 10 18 8
      vertex 15 18 13
      vertex 10 18 13
    endloop
  endfacet
  facet normal 0 -1 -0
    outer loop
      vertex 15 18 13
      vertex 10 18 8
      vertex 15 18 8
    endloop
  endfacet
  facet normal 1 -0 0
    outer loop
      vertex 134 18 13
      vertex 134 153 8
      vertex 134 153 13
    endloop
  endfacet
  facet normal 1 0 0
    outer loop
      vertex 134 153 8
      vertex 134 18 13
      vertex 134 18 8
    endloop
  endfacet
  facet normal -0 0 1
    outer loop
      vertex 18 90.5 13
      vertex 129 85.5 13
      vertex 129 90.5 13
    endloop
  endfacet
  facet normal 0 0 1
    outer loop
      vertex 129 85.5 13
      vertex 18 90.5 13
      vertex 18 85.5 13
    endloop
  endfacet
  facet normal 0 0 1
    outer loop
      vertex 129 90.5 13
      vertex 134 153 13
      vertex 129 153 13
    endloop
  endfacet
  facet normal 0 0 1
    outer loop
      vertex 134 153 13
      vertex 129 90.5 13
      vertex 134 18 13
    endloop
  endfacet
  facet normal -0 0 1
    outer loop
      vertex 129 85.5 13
      vertex 134 18 13
      vertex 129 90.5 13
    endloop
  endfacet
  facet normal 0 0 1
    outer loop
      vertex 134 18 13
      vertex 129 85.5 13
      vertex 129 18 13
    endloop
  endfacet
  facet normal -1 0 0
    outer loop
      vertex 129 90.5 8
      vertex 129 153 13
      vertex 129 153 8
    endloop
  endfacet
  facet normal -1 -0 0
    outer loop
      vertex 129 153 13
      vertex 129 90.5 8
      vertex 129 90.5 13
    endloop
  endfacet
  facet normal -1 0 0
    outer loop
      vertex 129 18 8
      vertex 129 85.5 13
      vertex 129 85.5 8
    endloop
  endfacet
  facet normal -1 -0 0
    outer loop
      vertex 129 85.5 13
      vertex 129 18 8
      vertex 129 18 13
    endloop
  endfacet
  facet normal 0 1 -0
    outer loop
      vertex 134 153 8
      vertex 129 153 13
      vertex 134 153 13
    endloop
  endfacet
  facet normal 0 1 0
    outer loop
      vertex 129 153 13
      vertex 134 153 8
      vertex 129 153 8
    endloop
  endfacet
  facet normal 0 -1 0
    outer loop
      vertex 129 18 8
      vertex 134 18 13
      vertex 129 18 13
    endloop
  endfacet
  facet normal 0 -1 -0
    outer loop
      vertex 134 18 13
      vertex 129 18 8
      vertex 134 18 8
    endloop
  endfacet
  facet normal -1 0 0
    outer loop
      vertex 18 85.5 8
      vertex 18 90.5 13
      vertex 18 90.5 8
    endloop
  endfacet
  facet normal -1 -0 0
    outer loop
      vertex 18 90.5 13
      vertex 18 85.5 8
      vertex 18 85.5 13
    endloop
  endfacet
  facet normal 0 1 -0
    outer loop
      vertex 129 90.5 8
      vertex 18 90.5 13
      vertex 129 90.5 13
    endloop
  endfacet
  facet normal 0 1 0
    outer loop
      vertex 18 90.5 13
      vertex 129 90.5 8
      vertex 18 90.5 8
    endloop
  endfacet
  facet normal 0 -1 0
    outer loop
      vertex 18 85.5 8
      vertex 129 85.5 13
      vertex 18 85.5 13
    endloop
  endfacet
  facet normal 0 -1 -0
    outer loop
      vertex 129 85.5 13
      vertex 18 85.5 8
      vertex 129 85.5 8
    endloop
  endfacet
  facet normal 0.991445 -0.130522 0
    outer loop
      vertex 4.7 42 8
      vertex 4.77837 42.5953 0
      vertex 4.77837 42.5953 8
    endloop
  endfacet
  facet normal 0.991445 -0.130522 0
    outer loop
      vertex 4.77837 42.5953 0
      vertex 4.7 42 8
      vertex 4.7 42 0
    endloop
  endfacet
  facet normal -0.923876 -0.382692 0
    outer loop
      vertex 9.22163 42.5953 0
      vertex 8.99186 43.15 8
      vertex 8.99186 43.15 0
    endloop
  endfacet
  facet normal -0.923876 -0.382692 0
    outer loop
      vertex 8.99186 43.15 8
      vertex 9.22163 42.5953 0
      vertex 9.22163 42.5953 8
    endloop
  endfacet
  facet normal -0.991445 -0.130522 0
    outer loop
      vertex 9.3 42 0
      vertex 9.22163 42.5953 8
      vertex 9.22163 42.5953 0
    endloop
  endfacet
  facet normal -0.991445 -0.130522 0
    outer loop
      vertex 9.22163 42.5953 8
      vertex 9.3 42 0
      vertex 9.3 42 8
    endloop
  endfacet
  facet normal -0.991445 0.130522 0
    outer loop
      vertex 9.22163 41.4047 0
      vertex 9.3 42 8
      vertex 9.3 42 0
    endloop
  endfacet
  facet normal -0.991445 0.130522 0
    outer loop
      vertex 9.3 42 8
      vertex 9.22163 41.4047 0
      vertex 9.22163 41.4047 8
    endloop
  endfacet
  facet normal 0.991445 0.130522 0
    outer loop
      vertex 4.77837 41.4047 8
      vertex 4.7 42 0
      vertex 4.7 42 8
    endloop
  endfacet
  facet normal 0.991445 0.130522 0
    outer loop
      vertex 4.7 42 0
      vertex 4.77837 41.4047 8
      vertex 4.77837 41.4047 0
    endloop
  endfacet
  facet normal -0.608857 0.79328 0
    outer loop
      vertex 8.62634 40.3737 0
      vertex 8.15 40.0081 8
      vertex 8.62634 40.3737 8
    endloop
  endfacet
  facet normal -0.608857 0.79328 0
    outer loop
      vertex 8.15 40.0081 8
      vertex 8.62634 40.3737 0
      vertex 8.15 40.0081 0
    endloop
  endfacet
  facet normal 0.793327 0.608795 0
    outer loop
      vertex 5.37365 40.3737 8
      vertex 5.00814 40.85 0
      vertex 5.00814 40.85 8
    endloop
  endfacet
  facet normal 0.793327 0.608795 0
    outer loop
      vertex 5.00814 40.85 0
      vertex 5.37365 40.3737 8
      vertex 5.37365 40.3737 0
    endloop
  endfacet
  facet normal 0.38258 0.923922 -0
    outer loop
      vertex 6.40472 39.7784 0
      vertex 5.85 40.0081 8
      vertex 6.40472 39.7784 8
    endloop
  endfacet
  facet normal 0.38258 0.923922 0
    outer loop
      vertex 5.85 40.0081 8
      vertex 6.40472 39.7784 0
      vertex 5.85 40.0081 0
    endloop
  endfacet
  facet normal -0.793319 0.608806 0
    outer loop
      vertex 8.62634 40.3737 0
      vertex 8.99186 40.85 8
      vertex 8.99186 40.85 0
    endloop
  endfacet
  facet normal -0.793319 0.608806 0
    outer loop
      vertex 8.99186 40.85 8
      vertex 8.62634 40.3737 0
      vertex 8.62634 40.3737 8
    endloop
  endfacet
  facet normal -0.923876 0.382692 0
    outer loop
      vertex 8.99186 40.85 0
      vertex 9.22163 41.4047 8
      vertex 9.22163 41.4047 0
    endloop
  endfacet
  facet normal -0.923876 0.382692 0
    outer loop
      vertex 9.22163 41.4047 8
      vertex 8.99186 40.85 0
      vertex 8.99186 40.85 8
    endloop
  endfacet
  facet normal -0.38258 -0.923922 0
    outer loop
      vertex 7.59528 44.2216 0
      vertex 8.15 43.9919 8
      vertex 7.59528 44.2216 8
    endloop
  endfacet
  facet normal -0.38258 -0.923922 -0
    outer loop
      vertex 8.15 43.9919 8
      vertex 7.59528 44.2216 0
      vertex 8.15 43.9919 0
    endloop
  endfacet
  facet normal 0.608849 -0.793286 0
    outer loop
      vertex 5.37365 43.6263 0
      vertex 5.85 43.9919 8
      vertex 5.37365 43.6263 8
    endloop
  endfacet
  facet normal 0.608849 -0.793286 0
    outer loop
      vertex 5.85 43.9919 8
      vertex 5.37365 43.6263 0
      vertex 5.85 43.9919 0
    endloop
  endfacet
  facet normal -0.38258 0.923922 0
    outer loop
      vertex 8.15 40.0081 0
      vertex 7.59528 39.7784 8
      vertex 8.15 40.0081 8
    endloop
  endfacet
  facet normal -0.38258 0.923922 0
    outer loop
      vertex 7.59528 39.7784 8
      vertex 8.15 40.0081 0
      vertex 7.59528 39.7784 0
    endloop
  endfacet
  facet normal -0.130575 -0.991438 0
    outer loop
      vertex 7 44.3 0
      vertex 7.59528 44.2216 8
      vertex 7 44.3 8
    endloop
  endfacet
  facet normal -0.130575 -0.991438 -0
    outer loop
      vertex 7.59528 44.2216 8
      vertex 7 44.3 0
      vertex 7.59528 44.2216 0
    endloop
  endfacet
  facet normal 0.793327 -0.608795 0
    outer loop
      vertex 5.00814 43.15 8
      vertex 5.37365 43.6263 0
      vertex 5.37365 43.6263 8
    endloop
  endfacet
  facet normal 0.793327 -0.608795 0
    outer loop
      vertex 5.37365 43.6263 0
      vertex 5.00814 43.15 8
      vertex 5.00814 43.15 0
    endloop
  endfacet
  facet normal 0.38258 -0.923922 0
    outer loop
      vertex 5.85 43.9919 0
      vertex 6.40472 44.2216 8
      vertex 5.85 43.9919 8
    endloop
  endfacet
  facet normal 0.38258 -0.923922 0
    outer loop
      vertex 6.40472 44.2216 8
      vertex 5.85 43.9919 0
      vertex 6.40472 44.2216 0
    endloop
  endfacet
  facet normal 0.130575 0.991438 -0
    outer loop
      vertex 7 39.7 0
      vertex 6.40472 39.7784 8
      vertex 7 39.7 8
    endloop
  endfacet
  facet normal 0.130575 0.991438 0
    outer loop
      vertex 6.40472 39.7784 8
      vertex 7 39.7 0
      vertex 6.40472 39.7784 0
    endloop
  endfacet
  facet normal 0.923876 0.382692 0
    outer loop
      vertex 5.00814 40.85 8
      vertex 4.77837 41.4047 0
      vertex 4.77837 41.4047 8
    endloop
  endfacet
  facet normal 0.923876 0.382692 0
    outer loop
      vertex 4.77837 41.4047 0
      vertex 5.00814 40.85 8
      vertex 5.00814 40.85 0
    endloop
  endfacet
  facet normal -0.608857 -0.79328 0
    outer loop
      vertex 8.15 43.9919 0
      vertex 8.62634 43.6263 8
      vertex 8.15 43.9919 8
    endloop
  endfacet
  facet normal -0.608857 -0.79328 -0
    outer loop
      vertex 8.62634 43.6263 8
      vertex 8.15 43.9919 0
      vertex 8.62634 43.6263 0
    endloop
  endfacet
  facet normal 0.923876 -0.382692 0
    outer loop
      vertex 4.77837 42.5953 8
      vertex 5.00814 43.15 0
      vertex 5.00814 43.15 8
    endloop
  endfacet
  facet normal 0.923876 -0.382692 0
    outer loop
      vertex 5.00814 43.15 0
      vertex 4.77837 42.5953 8
      vertex 4.77837 42.5953 0
    endloop
  endfacet
  facet normal 0.130575 -0.991438 0
    outer loop
      vertex 6.40472 44.2216 0
      vertex 7 44.3 8
      vertex 6.40472 44.2216 8
    endloop
  endfacet
  facet normal 0.130575 -0.991438 0
    outer loop
      vertex 7 44.3 8
      vertex 6.40472 44.2216 0
      vertex 7 44.3 0
    endloop
  endfacet
  facet normal -0.793319 -0.608806 0
    outer loop
      vertex 8.99186 43.15 0
      vertex 8.62634 43.6263 8
      vertex 8.62634 43.6263 0
    endloop
  endfacet
  facet normal -0.793319 -0.608806 0
    outer loop
      vertex 8.62634 43.6263 8
      vertex 8.99186 43.15 0
      vertex 8.99186 43.15 8
    endloop
  endfacet
  facet normal 0.608849 0.793286 -0
    outer loop
      vertex 5.85 40.0081 0
      vertex 5.37365 40.3737 8
      vertex 5.85 40.0081 8
    endloop
  endfacet
  facet normal 0.608849 0.793286 0
    outer loop
      vertex 5.37365 40.3737 8
      vertex 5.85 40.0081 0
      vertex 5.37365 40.3737 0
    endloop
  endfacet
  facet normal -0.130575 0.991438 0
    outer loop
      vertex 7.59528 39.7784 0
      vertex 7 39.7 8
      vertex 7.59528 39.7784 8
    endloop
  endfacet
  facet normal -0.130575 0.991438 0
    outer loop
      vertex 7 39.7 8
      vertex 7.59528 39.7784 0
      vertex 7 39.7 0
    endloop
  endfacet
  facet normal 0.991437 -0.130586 0
    outer loop
      vertex 4.7 129 8
      vertex 4.77837 129.595 0
      vertex 4.77837 129.595 8
    endloop
  endfacet
  facet normal 0.991437 -0.130586 0
    outer loop
      vertex 4.77837 129.595 0
      vertex 4.7 129 8
      vertex 4.7 129 0
    endloop
  endfacet
  facet normal -0.923949 -0.382515 0
    outer loop
      vertex 9.22163 129.595 0
      vertex 8.99186 130.15 8
      vertex 8.99186 130.15 0
    endloop
  endfacet
  facet normal -0.923949 -0.382515 0
    outer loop
      vertex 8.99186 130.15 8
      vertex 9.22163 129.595 0
      vertex 9.22163 129.595 8
    endloop
  endfacet
  facet normal -0.991437 -0.130586 0
    outer loop
      vertex 9.3 129 0
      vertex 9.22163 129.595 8
      vertex 9.22163 129.595 0
    endloop
  endfacet
  facet normal -0.991437 -0.130586 0
    outer loop
      vertex 9.22163 129.595 8
      vertex 9.3 129 0
      vertex 9.3 129 8
    endloop
  endfacet
  facet normal -0.991437 0.130586 0
    outer loop
      vertex 9.22163 128.405 0
      vertex 9.3 129 8
      vertex 9.3 129 0
    endloop
  endfacet
  facet normal -0.991437 0.130586 0
    outer loop
      vertex 9.3 129 8
      vertex 9.22163 128.405 0
      vertex 9.22163 128.405 8
    endloop
  endfacet
  facet normal 0.991437 0.130586 0
    outer loop
      vertex 4.77837 128.405 8
      vertex 4.7 129 0
      vertex 4.7 129 8
    endloop
  endfacet
  facet normal 0.991437 0.130586 0
    outer loop
      vertex 4.7 129 0
      vertex 4.77837 128.405 8
      vertex 4.77837 128.405 0
    endloop
  endfacet
  facet normal -0.609276 0.792958 0
    outer loop
      vertex 8.62634 127.374 0
      vertex 8.15 127.008 8
      vertex 8.62634 127.374 8
    endloop
  endfacet
  facet normal -0.609276 0.792958 0
    outer loop
      vertex 8.15 127.008 8
      vertex 8.62634 127.374 0
      vertex 8.15 127.008 0
    endloop
  endfacet
  facet normal 0.793142 0.609037 0
    outer loop
      vertex 5.37365 127.374 8
      vertex 5.00814 127.85 0
      vertex 5.00814 127.85 8
    endloop
  endfacet
  facet normal 0.793142 0.609037 0
    outer loop
      vertex 5.00814 127.85 0
      vertex 5.37365 127.374 8
      vertex 5.37365 127.374 0
    endloop
  endfacet
  facet normal 0.383007 0.923746 -0
    outer loop
      vertex 6.40472 126.778 0
      vertex 5.85 127.008 8
      vertex 6.40472 126.778 8
    endloop
  endfacet
  facet normal 0.383007 0.923746 0
    outer loop
      vertex 5.85 127.008 8
      vertex 6.40472 126.778 0
      vertex 5.85 127.008 0
    endloop
  endfacet
  facet normal -0.793134 0.609047 0
    outer loop
      vertex 8.62634 127.374 0
      vertex 8.99186 127.85 8
      vertex 8.99186 127.85 0
    endloop
  endfacet
  facet normal -0.793134 0.609047 0
    outer loop
      vertex 8.99186 127.85 8
      vertex 8.62634 127.374 0
      vertex 8.62634 127.374 8
    endloop
  endfacet
  facet normal -0.923949 0.382515 0
    outer loop
      vertex 8.99186 127.85 0
      vertex 9.22163 128.405 8
      vertex 9.22163 128.405 0
    endloop
  endfacet
  facet normal -0.923949 0.382515 0
    outer loop
      vertex 9.22163 128.405 8
      vertex 8.99186 127.85 0
      vertex 8.99186 127.85 8
    endloop
  endfacet
  facet normal -0.383007 -0.923746 0
    outer loop
      vertex 7.59528 131.222 0
      vertex 8.15 130.992 8
      vertex 7.59528 131.222 8
    endloop
  endfacet
  facet normal -0.383007 -0.923746 -0
    outer loop
      vertex 8.15 130.992 8
      vertex 7.59528 131.222 0
      vertex 8.15 130.992 0
    endloop
  endfacet
  facet normal 0.609268 -0.792964 0
    outer loop
      vertex 5.37365 130.626 0
      vertex 5.85 130.992 8
      vertex 5.37365 130.626 8
    endloop
  endfacet
  facet normal 0.609268 -0.792964 0
    outer loop
      vertex 5.85 130.992 8
      vertex 5.37365 130.626 0
      vertex 5.85 130.992 0
    endloop
  endfacet
  facet normal -0.383007 0.923746 0
    outer loop
      vertex 8.15 127.008 0
      vertex 7.59528 126.778 8
      vertex 8.15 127.008 8
    endloop
  endfacet
  facet normal -0.383007 0.923746 0
    outer loop
      vertex 7.59528 126.778 8
      vertex 8.15 127.008 0
      vertex 7.59528 126.778 0
    endloop
  endfacet
  facet normal -0.12992 -0.991524 0
    outer loop
      vertex 7 131.3 0
      vertex 7.59528 131.222 8
      vertex 7 131.3 8
    endloop
  endfacet
  facet normal -0.12992 -0.991524 -0
    outer loop
      vertex 7.59528 131.222 8
      vertex 7 131.3 0
      vertex 7.59528 131.222 0
    endloop
  endfacet
  facet normal 0.793142 -0.609037 0
    outer loop
      vertex 5.00814 130.15 8
      vertex 5.37365 130.626 0
      vertex 5.37365 130.626 8
    endloop
  endfacet
  facet normal 0.793142 -0.609037 0
    outer loop
      vertex 5.37365 130.626 0
      vertex 5.00814 130.15 8
      vertex 5.00814 130.15 0
    endloop
  endfacet
  facet normal 0.383007 -0.923746 0
    outer loop
      vertex 5.85 130.992 0
      vertex 6.40472 131.222 8
      vertex 5.85 130.992 8
    endloop
  endfacet
  facet normal 0.383007 -0.923746 0
    outer loop
      vertex 6.40472 131.222 8
      vertex 5.85 130.992 0
      vertex 6.40472 131.222 0
    endloop
  endfacet
  facet normal 0.12992 0.991524 -0
    outer loop
      vertex 7 126.7 0
      vertex 6.40472 126.778 8
      vertex 7 126.7 8
    endloop
  endfacet
  facet normal 0.12992 0.991524 0
    outer loop
      vertex 6.40472 126.778 8
      vertex 7 126.7 0
      vertex 6.40472 126.778 0
    endloop
  endfacet
  facet normal 0.923949 0.382515 0
    outer loop
      vertex 5.00814 127.85 8
      vertex 4.77837 128.405 0
      vertex 4.77837 128.405 8
    endloop
  endfacet
  facet normal 0.923949 0.382515 0
    outer loop
      vertex 4.77837 128.405 0
      vertex 5.00814 127.85 8
      vertex 5.00814 127.85 0
    endloop
  endfacet
  facet normal -0.609276 -0.792958 0
    outer loop
      vertex 8.15 130.992 0
      vertex 8.62634 130.626 8
      vertex 8.15 130.992 8
    endloop
  endfacet
  facet normal -0.609276 -0.792958 -0
    outer loop
      vertex 8.62634 130.626 8
      vertex 8.15 130.992 0
      vertex 8.62634 130.626 0
    endloop
  endfacet
  facet normal 0.923949 -0.382515 0
    outer loop
      vertex 4.77837 129.595 8
      vertex 5.00814 130.15 0
      vertex 5.00814 130.15 8
    endloop
  endfacet
  facet normal 0.923949 -0.382515 0
    outer loop
      vertex 5.00814 130.15 0
      vertex 4.77837 129.595 8
      vertex 4.77837 129.595 0
    endloop
  endfacet
  facet normal 0.12992 -0.991524 0
    outer loop
      vertex 6.40472 131.222 0
      vertex 7 131.3 8
      vertex 6.40472 131.222 8
    endloop
  endfacet
  facet normal 0.12992 -0.991524 0
    outer loop
      vertex 7 131.3 8
      vertex 6.40472 131.222 0
      vertex 7 131.3 0
    endloop
  endfacet
  facet normal -0.793134 -0.609047 0
    outer loop
      vertex 8.99186 130.15 0
      vertex 8.62634 130.626 8
      vertex 8.62634 130.626 0
    endloop
  endfacet
  facet normal -0.793134 -0.609047 0
    outer loop
      vertex 8.62634 130.626 8
      vertex 8.99186 130.15 0
      vertex 8.99186 130.15 8
    endloop
  endfacet
  facet normal 0.609268 0.792964 -0
    outer loop
      vertex 5.85 127.008 0
      vertex 5.37365 127.374 8
      vertex 5.85 127.008 8
    endloop
  endfacet
  facet normal 0.609268 0.792964 0
    outer loop
      vertex 5.37365 127.374 8
      vertex 5.85 127.008 0
      vertex 5.37365 127.374 0
    endloop
  endfacet
  facet normal -0.12992 0.991524 0
    outer loop
      vertex 7.59528 126.778 0
      vertex 7 126.7 8
      vertex 7.59528 126.778 8
    endloop
  endfacet
  facet normal -0.12992 0.991524 0
    outer loop
      vertex 7 126.7 8
      vertex 7.59528 126.778 0
      vertex 7 126.7 0
    endloop
  endfacet
  facet normal -0.923922 -0.38258 0
    outer loop
      vertex 51.3916 8.59528 0
      vertex 51.1619 9.15 7.8
      vertex 51.1619 9.15 0
    endloop
  endfacet
  facet normal -0.923922 -0.38258 0
    outer loop
      vertex 51.1619 9.15 7.8
      vertex 51.3916 8.59528 0
      vertex 51.3916 8.59528 7.8
    endloop
  endfacet
  facet normal -0.991438 -0.130575 0
    outer loop
      vertex 51.47 8 0
      vertex 51.3916 8.59528 7.8
      vertex 51.3916 8.59528 0
    endloop
  endfacet
  facet normal -0.991438 -0.130575 0
    outer loop
      vertex 51.3916 8.59528 7.8
      vertex 51.47 8 0
      vertex 51.47 8 7.8
    endloop
  endfacet
  facet normal -0.991438 0.130575 0
    outer loop
      vertex 51.3916 7.40472 0
      vertex 51.47 8 7.8
      vertex 51.47 8 0
    endloop
  endfacet
  facet normal -0.991438 0.130575 0
    outer loop
      vertex 51.47 8 7.8
      vertex 51.3916 7.40472 0
      vertex 51.3916 7.40472 7.8
    endloop
  endfacet
  facet normal -0.608795 0.793327 0
    outer loop
      vertex 50.7963 6.37365 0
      vertex 50.32 6.00814 7.8
      vertex 50.7963 6.37365 7.8
    endloop
  endfacet
  facet normal -0.608795 0.793327 0
    outer loop
      vertex 50.32 6.00814 7.8
      vertex 50.7963 6.37365 0
      vertex 50.32 6.00814 0
    endloop
  endfacet
  facet normal -0.793286 0.608849 0
    outer loop
      vertex 50.7963 6.37365 0
      vertex 51.1619 6.85 7.8
      vertex 51.1619 6.85 0
    endloop
  endfacet
  facet normal -0.793286 0.608849 0
    outer loop
      vertex 51.1619 6.85 7.8
      vertex 50.7963 6.37365 0
      vertex 50.7963 6.37365 7.8
    endloop
  endfacet
  facet normal 0.991438 -0.130575 0
    outer loop
      vertex 46.87 8 7.8
      vertex 46.9484 8.59528 0
      vertex 46.9484 8.59528 7.8
    endloop
  endfacet
  facet normal 0.991438 -0.130575 0
    outer loop
      vertex 46.9484 8.59528 0
      vertex 46.87 8 7.8
      vertex 46.87 8 0
    endloop
  endfacet
  facet normal 0.382692 0.923876 -0
    outer loop
      vertex 48.5747 5.77837 0
      vertex 48.02 6.00814 7.8
      vertex 48.5747 5.77837 7.8
    endloop
  endfacet
  facet normal 0.382692 0.923876 0
    outer loop
      vertex 48.02 6.00814 7.8
      vertex 48.5747 5.77837 0
      vertex 48.02 6.00814 0
    endloop
  endfacet
  facet normal -0.923922 0.38258 0
    outer loop
      vertex 51.1619 6.85 0
      vertex 51.3916 7.40472 7.8
      vertex 51.3916 7.40472 0
    endloop
  endfacet
  facet normal -0.923922 0.38258 0
    outer loop
      vertex 51.3916 7.40472 7.8
      vertex 51.1619 6.85 0
      vertex 51.1619 6.85 7.8
    endloop
  endfacet
  facet normal -0.382649 -0.923894 0
    outer loop
      vertex 49.7653 10.2216 0
      vertex 50.32 9.99186 7.8
      vertex 49.7653 10.2216 7.8
    endloop
  endfacet
  facet normal -0.382649 -0.923894 -0
    outer loop
      vertex 50.32 9.99186 7.8
      vertex 49.7653 10.2216 0
      vertex 50.32 9.99186 0
    endloop
  endfacet
  facet normal 0.79328 -0.608857 0
    outer loop
      vertex 47.1781 9.15 7.8
      vertex 47.5437 9.62634 0
      vertex 47.5437 9.62634 7.8
    endloop
  endfacet
  facet normal 0.79328 -0.608857 0
    outer loop
      vertex 47.5437 9.62634 0
      vertex 47.1781 9.15 7.8
      vertex 47.1781 9.15 0
    endloop
  endfacet
  facet normal -0.382692 0.923876 0
    outer loop
      vertex 50.32 6.00814 0
      vertex 49.7653 5.77837 7.8
      vertex 50.32 6.00814 7.8
    endloop
  endfacet
  facet normal -0.382692 0.923876 0
    outer loop
      vertex 49.7653 5.77837 7.8
      vertex 50.32 6.00814 0
      vertex 49.7653 5.77837 0
    endloop
  endfacet
  facet normal -0.130571 -0.991439 0
    outer loop
      vertex 49.17 10.3 0
      vertex 49.7653 10.2216 7.8
      vertex 49.17 10.3 7.8
    endloop
  endfacet
  facet normal -0.130571 -0.991439 -0
    outer loop
      vertex 49.7653 10.2216 7.8
      vertex 49.17 10.3 0
      vertex 49.7653 10.2216 0
    endloop
  endfacet
  facet normal 0.991438 0.130575 0
    outer loop
      vertex 46.9484 7.40472 7.8
      vertex 46.87 8 0
      vertex 46.87 8 7.8
    endloop
  endfacet
  facet normal 0.991438 0.130575 0
    outer loop
      vertex 46.87 8 0
      vertex 46.9484 7.40472 7.8
      vertex 46.9484 7.40472 0
    endloop
  endfacet
  facet normal 0.130522 0.991445 -0
    outer loop
      vertex 49.17 5.7 0
      vertex 48.5747 5.77837 7.8
      vertex 49.17 5.7 7.8
    endloop
  endfacet
  facet normal 0.130522 0.991445 0
    outer loop
      vertex 48.5747 5.77837 7.8
      vertex 49.17 5.7 0
      vertex 48.5747 5.77837 0
    endloop
  endfacet
  facet normal 0.382649 -0.923894 0
    outer loop
      vertex 48.02 9.99186 0
      vertex 48.5747 10.2216 7.8
      vertex 48.02 9.99186 7.8
    endloop
  endfacet
  facet normal 0.382649 -0.923894 0
    outer loop
      vertex 48.5747 10.2216 7.8
      vertex 48.02 9.99186 0
      vertex 48.5747 10.2216 0
    endloop
  endfacet
  facet normal 0.608806 -0.793319 0
    outer loop
      vertex 47.5437 9.62634 0
      vertex 48.02 9.99186 7.8
      vertex 47.5437 9.62634 7.8
    endloop
  endfacet
  facet normal 0.608806 -0.793319 0
    outer loop
      vertex 48.02 9.99186 7.8
      vertex 47.5437 9.62634 0
      vertex 48.02 9.99186 0
    endloop
  endfacet
  facet normal 0.923922 0.38258 0
    outer loop
      vertex 47.1781 6.85 7.8
      vertex 46.9484 7.40472 0
      vertex 46.9484 7.40472 7.8
    endloop
  endfacet
  facet normal 0.923922 0.38258 0
    outer loop
      vertex 46.9484 7.40472 0
      vertex 47.1781 6.85 7.8
      vertex 47.1781 6.85 0
    endloop
  endfacet
  facet normal -0.608806 -0.793319 0
    outer loop
      vertex 50.32 9.99186 0
      vertex 50.7963 9.62634 7.8
      vertex 50.32 9.99186 7.8
    endloop
  endfacet
  facet normal -0.608806 -0.793319 -0
    outer loop
      vertex 50.7963 9.62634 7.8
      vertex 50.32 9.99186 0
      vertex 50.7963 9.62634 0
    endloop
  endfacet
  facet normal 0.923922 -0.38258 0
    outer loop
      vertex 46.9484 8.59528 7.8
      vertex 47.1781 9.15 0
      vertex 47.1781 9.15 7.8
    endloop
  endfacet
  facet normal 0.923922 -0.38258 0
    outer loop
      vertex 47.1781 9.15 0
      vertex 46.9484 8.59528 7.8
      vertex 46.9484 8.59528 0
    endloop
  endfacet
  facet normal 0.130571 -0.991439 0
    outer loop
      vertex 48.5747 10.2216 0
      vertex 49.17 10.3 7.8
      vertex 48.5747 10.2216 7.8
    endloop
  endfacet
  facet normal 0.130571 -0.991439 0
    outer loop
      vertex 49.17 10.3 7.8
      vertex 48.5747 10.2216 0
      vertex 49.17 10.3 0
    endloop
  endfacet
  facet normal -0.79328 -0.608857 0
    outer loop
      vertex 51.1619 9.15 0
      vertex 50.7963 9.62634 7.8
      vertex 50.7963 9.62634 0
    endloop
  endfacet
  facet normal -0.79328 -0.608857 0
    outer loop
      vertex 50.7963 9.62634 7.8
      vertex 51.1619 9.15 0
      vertex 51.1619 9.15 7.8
    endloop
  endfacet
  facet normal 0.608795 0.793327 -0
    outer loop
      vertex 48.02 6.00814 0
      vertex 47.5437 6.37365 7.8
      vertex 48.02 6.00814 7.8
    endloop
  endfacet
  facet normal 0.608795 0.793327 0
    outer loop
      vertex 47.5437 6.37365 7.8
      vertex 48.02 6.00814 0
      vertex 47.5437 6.37365 0
    endloop
  endfacet
  facet normal 0.793286 0.608849 0
    outer loop
      vertex 47.5437 6.37365 7.8
      vertex 47.1781 6.85 0
      vertex 47.1781 6.85 7.8
    endloop
  endfacet
  facet normal 0.793286 0.608849 0
    outer loop
      vertex 47.1781 6.85 0
      vertex 47.5437 6.37365 7.8
      vertex 47.5437 6.37365 0
    endloop
  endfacet
  facet normal -0.130522 0.991445 0
    outer loop
      vertex 49.7653 5.77837 0
      vertex 49.17 5.7 7.8
      vertex 49.7653 5.77837 7.8
    endloop
  endfacet
  facet normal -0.130522 0.991445 0
    outer loop
      vertex 49.17 5.7 7.8
      vertex 49.7653 5.77837 0
      vertex 49.17 5.7 0
    endloop
  endfacet
  facet normal 0.991438 0.130575 0
    outer loop
      vertex 97.6084 7.40472 7.8
      vertex 97.53 8 0
      vertex 97.53 8 7.8
    endloop
  endfacet
  facet normal 0.991438 0.130575 0
    outer loop
      vertex 97.53 8 0
      vertex 97.6084 7.40472 7.8
      vertex 97.6084 7.40472 0
    endloop
  endfacet
  facet normal -0.923746 -0.383007 0
    outer loop
      vertex 102.052 8.59528 0
      vertex 101.822 9.15 7.8
      vertex 101.822 9.15 0
    endloop
  endfacet
  facet normal -0.923746 -0.383007 0
    outer loop
      vertex 101.822 9.15 7.8
      vertex 102.052 8.59528 0
      vertex 102.052 8.59528 7.8
    endloop
  endfacet
  facet normal -0.991524 -0.12992 0
    outer loop
      vertex 102.13 8 0
      vertex 102.052 8.59528 7.8
      vertex 102.052 8.59528 0
    endloop
  endfacet
  facet normal -0.991524 -0.12992 0
    outer loop
      vertex 102.052 8.59528 7.8
      vertex 102.13 8 0
      vertex 102.13 8 7.8
    endloop
  endfacet
  facet normal -0.991524 0.12992 0
    outer loop
      vertex 102.052 7.40472 0
      vertex 102.13 8 7.8
      vertex 102.13 8 0
    endloop
  endfacet
  facet normal -0.991524 0.12992 0
    outer loop
      vertex 102.13 8 7.8
      vertex 102.052 7.40472 0
      vertex 102.052 7.40472 7.8
    endloop
  endfacet
  facet normal 0.608806 -0.793319 0
    outer loop
      vertex 98.2037 9.62634 0
      vertex 98.68 9.99186 7.8
      vertex 98.2037 9.62634 7.8
    endloop
  endfacet
  facet normal 0.608806 -0.793319 0
    outer loop
      vertex 98.68 9.99186 7.8
      vertex 98.2037 9.62634 0
      vertex 98.68 9.99186 0
    endloop
  endfacet
  facet normal 0.923922 -0.38258 0
    outer loop
      vertex 97.6084 8.59528 7.8
      vertex 97.8381 9.15 0
      vertex 97.8381 9.15 7.8
    endloop
  endfacet
  facet normal 0.923922 -0.38258 0
    outer loop
      vertex 97.8381 9.15 0
      vertex 97.6084 8.59528 7.8
      vertex 97.6084 8.59528 0
    endloop
  endfacet
  facet normal -0.609047 -0.793134 0
    outer loop
      vertex 100.98 9.99186 0
      vertex 101.456 9.62634 7.8
      vertex 100.98 9.99186 7.8
    endloop
  endfacet
  facet normal -0.609047 -0.793134 -0
    outer loop
      vertex 101.456 9.62634 7.8
      vertex 100.98 9.99186 0
      vertex 101.456 9.62634 0
    endloop
  endfacet
  facet normal -0.382472 -0.923967 0
    outer loop
      vertex 100.425 10.2216 0
      vertex 100.98 9.99186 7.8
      vertex 100.425 10.2216 7.8
    endloop
  endfacet
  facet normal -0.382472 -0.923967 -0
    outer loop
      vertex 100.98 9.99186 7.8
      vertex 100.425 10.2216 0
      vertex 100.98 9.99186 0
    endloop
  endfacet
  facet normal 0.382692 0.923876 -0
    outer loop
      vertex 99.2347 5.77837 0
      vertex 98.68 6.00814 7.8
      vertex 99.2347 5.77837 7.8
    endloop
  endfacet
  facet normal 0.382692 0.923876 0
    outer loop
      vertex 98.68 6.00814 7.8
      vertex 99.2347 5.77837 0
      vertex 98.68 6.00814 0
    endloop
  endfacet
  facet normal -0.923746 0.383007 0
    outer loop
      vertex 101.822 6.85 0
      vertex 102.052 7.40472 7.8
      vertex 102.052 7.40472 0
    endloop
  endfacet
  facet normal -0.923746 0.383007 0
    outer loop
      vertex 102.052 7.40472 7.8
      vertex 101.822 6.85 0
      vertex 101.822 6.85 7.8
    endloop
  endfacet
  facet normal -0.130636 -0.99143 0
    outer loop
      vertex 99.83 10.3 0
      vertex 100.425 10.2216 7.8
      vertex 99.83 10.3 7.8
    endloop
  endfacet
  facet normal -0.130636 -0.99143 -0
    outer loop
      vertex 100.425 10.2216 7.8
      vertex 99.83 10.3 0
      vertex 100.425 10.2216 0
    endloop
  endfacet
  facet normal -0.792964 0.609268 0
    outer loop
      vertex 101.456 6.37365 0
      vertex 101.822 6.85 7.8
      vertex 101.822 6.85 0
    endloop
  endfacet
  facet normal -0.792964 0.609268 0
    outer loop
      vertex 101.822 6.85 7.8
      vertex 101.456 6.37365 0
      vertex 101.456 6.37365 7.8
    endloop
  endfacet
  facet normal 0.130522 0.991445 -0
    outer loop
      vertex 99.83 5.7 0
      vertex 99.2347 5.77837 7.8
      vertex 99.83 5.7 7.8
    endloop
  endfacet
  facet normal 0.130522 0.991445 0
    outer loop
      vertex 99.2347 5.77837 7.8
      vertex 99.83 5.7 0
      vertex 99.2347 5.77837 0
    endloop
  endfacet
  facet normal 0.382649 -0.923894 0
    outer loop
      vertex 98.68 9.99186 0
      vertex 99.2347 10.2216 7.8
      vertex 98.68 9.99186 7.8
    endloop
  endfacet
  facet normal 0.382649 -0.923894 0
    outer loop
      vertex 99.2347 10.2216 7.8
      vertex 98.68 9.99186 0
      vertex 99.2347 10.2216 0
    endloop
  endfacet
  facet normal 0.991438 -0.130575 0
    outer loop
      vertex 97.53 8 7.8
      vertex 97.6084 8.59528 0
      vertex 97.6084 8.59528 7.8
    endloop
  endfacet
  facet normal 0.991438 -0.130575 0
    outer loop
      vertex 97.6084 8.59528 0
      vertex 97.53 8 7.8
      vertex 97.53 8 0
    endloop
  endfacet
  facet normal -0.382515 0.923949 0
    outer loop
      vertex 100.98 6.00814 0
      vertex 100.425 5.77837 7.8
      vertex 100.98 6.00814 7.8
    endloop
  endfacet
  facet normal -0.382515 0.923949 0
    outer loop
      vertex 100.425 5.77837 7.8
      vertex 100.98 6.00814 0
      vertex 100.425 5.77837 0
    endloop
  endfacet
  facet normal -0.609037 0.793142 0
    outer loop
      vertex 101.456 6.37365 0
      vertex 100.98 6.00814 7.8
      vertex 101.456 6.37365 7.8
    endloop
  endfacet
  facet normal -0.609037 0.793142 0
    outer loop
      vertex 100.98 6.00814 7.8
      vertex 101.456 6.37365 0
      vertex 100.98 6.00814 0
    endloop
  endfacet
  facet normal 0.79328 -0.608857 0
    outer loop
      vertex 97.8381 9.15 7.8
      vertex 98.2037 9.62634 0
      vertex 98.2037 9.62634 7.8
    endloop
  endfacet
  facet normal 0.79328 -0.608857 0
    outer loop
      vertex 98.2037 9.62634 0
      vertex 97.8381 9.15 7.8
      vertex 97.8381 9.15 0
    endloop
  endfacet
  facet normal 0.793286 0.608849 0
    outer loop
      vertex 98.2037 6.37365 7.8
      vertex 97.8381 6.85 0
      vertex 97.8381 6.85 7.8
    endloop
  endfacet
  facet normal 0.793286 0.608849 0
    outer loop
      vertex 97.8381 6.85 0
      vertex 98.2037 6.37365 7.8
      vertex 98.2037 6.37365 0
    endloop
  endfacet
  facet normal 0.923922 0.38258 0
    outer loop
      vertex 97.8381 6.85 7.8
      vertex 97.6084 7.40472 0
      vertex 97.6084 7.40472 7.8
    endloop
  endfacet
  facet normal 0.923922 0.38258 0
    outer loop
      vertex 97.6084 7.40472 0
      vertex 97.8381 6.85 7.8
      vertex 97.8381 6.85 0
    endloop
  endfacet
  facet normal 0.130571 -0.991439 0
    outer loop
      vertex 99.2347 10.2216 0
      vertex 99.83 10.3 7.8
      vertex 99.2347 10.2216 7.8
    endloop
  endfacet
  facet normal 0.130571 -0.991439 0
    outer loop
      vertex 99.83 10.3 7.8
      vertex 99.2347 10.2216 0
      vertex 99.83 10.3 0
    endloop
  endfacet
  facet normal -0.792958 -0.609276 0
    outer loop
      vertex 101.822 9.15 0
      vertex 101.456 9.62634 7.8
      vertex 101.456 9.62634 0
    endloop
  endfacet
  facet normal -0.792958 -0.609276 0
    outer loop
      vertex 101.456 9.62634 7.8
      vertex 101.822 9.15 0
      vertex 101.822 9.15 7.8
    endloop
  endfacet
  facet normal 0.608795 0.793327 -0
    outer loop
      vertex 98.68 6.00814 0
      vertex 98.2037 6.37365 7.8
      vertex 98.68 6.00814 7.8
    endloop
  endfacet
  facet normal 0.608795 0.793327 0
    outer loop
      vertex 98.2037 6.37365 7.8
      vertex 98.68 6.00814 0
      vertex 98.2037 6.37365 0
    endloop
  endfacet
  facet normal -0.130586 0.991437 0
    outer loop
      vertex 100.425 5.77837 0
      vertex 99.83 5.7 7.8
      vertex 100.425 5.77837 7.8
    endloop
  endfacet
  facet normal -0.130586 0.991437 0
    outer loop
      vertex 99.83 5.7 7.8
      vertex 100.425 5.77837 0
      vertex 99.83 5.7 0
    endloop
  endfacet
  facet normal -1 0 0
    outer loop
      vertex 111.5 0 7.8
      vertex 111.5 12.49 8
      vertex 111.5 12.49 7.8
    endloop
  endfacet
  facet normal -1 -0 0
    outer loop
      vertex 111.5 12.49 8
      vertex 111.5 0 7.8
      vertex 111.5 0 8
    endloop
  endfacet
  facet normal 0 0 1
    outer loop
      vertex 102.052 7.40472 7.8
      vertex 111.5 12.49 7.8
      vertex 102.13 8 7.8
    endloop
  endfacet
  facet normal 0 0 1
    outer loop
      vertex 111.5 12.49 7.8
      vertex 102.052 8.59528 7.8
      vertex 102.13 8 7.8
    endloop
  endfacet
  facet normal 0 0 1
    outer loop
      vertex 111.5 12.49 7.8
      vertex 101.822 9.15 7.8
      vertex 102.052 8.59528 7.8
    endloop
  endfacet
  facet normal 0 0 1
    outer loop
      vertex 111.5 12.49 7.8
      vertex 101.456 9.62634 7.8
      vertex 101.822 9.15 7.8
    endloop
  endfacet
  facet normal 0 0 1
    outer loop
      vertex 111.5 12.49 7.8
      vertex 100.98 9.99186 7.8
      vertex 101.456 9.62634 7.8
    endloop
  endfacet
  facet normal 0 0 1
    outer loop
      vertex 111.5 12.49 7.8
      vertex 100.425 10.2216 7.8
      vertex 100.98 9.99186 7.8
    endloop
  endfacet
  facet normal 0 0 1
    outer loop
      vertex 111.5 12.49 7.8
      vertex 99.83 10.3 7.8
      vertex 100.425 10.2216 7.8
    endloop
  endfacet
  facet normal 0 0 1
    outer loop
      vertex 111.5 12.49 7.8
      vertex 99.2347 10.2216 7.8
      vertex 99.83 10.3 7.8
    endloop
  endfacet
  facet normal 0 0 1
    outer loop
      vertex 97.6084 8.59528 7.8
      vertex 51.47 8 7.8
      vertex 97.53 8 7.8
    endloop
  endfacet
  facet normal 0 0 1
    outer loop
      vertex 51.3916 8.59528 7.8
      vertex 97.6084 8.59528 7.8
      vertex 97.8381 9.15 7.8
    endloop
  endfacet
  facet normal 0 0 1
    outer loop
      vertex 51.1619 9.15 7.8
      vertex 97.8381 9.15 7.8
      vertex 98.2037 9.62634 7.8
    endloop
  endfacet
  facet normal 0 0 1
    outer loop
      vertex 50.7963 9.62634 7.8
      vertex 98.2037 9.62634 7.8
      vertex 98.68 9.99186 7.8
    endloop
  endfacet
  facet normal 0 0 1
    outer loop
      vertex 50.32 9.99186 7.8
      vertex 98.68 9.99186 7.8
      vertex 99.2347 10.2216 7.8
    endloop
  endfacet
  facet normal 0 0 1
    outer loop
      vertex 49.7653 10.2216 7.8
      vertex 99.2347 10.2216 7.8
      vertex 111.5 12.49 7.8
    endloop
  endfacet
  facet normal 0 0 1
    outer loop
      vertex 97.6084 8.59528 7.8
      vertex 51.3916 8.59528 7.8
      vertex 51.47 8 7.8
    endloop
  endfacet
  facet normal 0 0 1
    outer loop
      vertex 97.8381 9.15 7.8
      vertex 51.1619 9.15 7.8
      vertex 51.3916 8.59528 7.8
    endloop
  endfacet
  facet normal 0 0 1
    outer loop
      vertex 98.2037 9.62634 7.8
      vertex 50.7963 9.62634 7.8
      vertex 51.1619 9.15 7.8
    endloop
  endfacet
  facet normal 0 0 1
    outer loop
      vertex 98.68 9.99186 7.8
      vertex 50.32 9.99186 7.8
      vertex 50.7963 9.62634 7.8
    endloop
  endfacet
  facet normal 0 0 1
    outer loop
      vertex 99.2347 10.2216 7.8
      vertex 49.7653 10.2216 7.8
      vertex 50.32 9.99186 7.8
    endloop
  endfacet
  facet normal -0 0 1
    outer loop
      vertex 37.5 12.49 7.8
      vertex 49.7653 10.2216 7.8
      vertex 111.5 12.49 7.8
    endloop
  endfacet
  facet normal 0 0 1
    outer loop
      vertex 46.9484 8.59528 7.8
      vertex 37.5 12.49 7.8
      vertex 46.87 8 7.8
    endloop
  endfacet
  facet normal 0 0 1
    outer loop
      vertex 47.1781 9.15 7.8
      vertex 37.5 12.49 7.8
      vertex 46.9484 8.59528 7.8
    endloop
  endfacet
  facet normal 0 0 1
    outer loop
      vertex 47.5437 9.62634 7.8
      vertex 37.5 12.49 7.8
      vertex 47.1781 9.15 7.8
    endloop
  endfacet
  facet normal 0 0 1
    outer loop
      vertex 48.02 9.99186 7.8
      vertex 37.5 12.49 7.8
      vertex 47.5437 9.62634 7.8
    endloop
  endfacet
  facet normal 0 0 1
    outer loop
      vertex 48.5747 10.2216 7.8
      vertex 37.5 12.49 7.8
      vertex 48.02 9.99186 7.8
    endloop
  endfacet
  facet normal 0 0 1
    outer loop
      vertex 49.17 10.3 7.8
      vertex 37.5 12.49 7.8
      vertex 48.5747 10.2216 7.8
    endloop
  endfacet
  facet normal 0 0 1
    outer loop
      vertex 49.7653 10.2216 7.8
      vertex 37.5 12.49 7.8
      vertex 49.17 10.3 7.8
    endloop
  endfacet
  facet normal 0 0 1
    outer loop
      vertex 111.5 12.49 7.8
      vertex 102.052 7.40472 7.8
      vertex 111.5 0 7.8
    endloop
  endfacet
  facet normal -0 0 1
    outer loop
      vertex 101.822 6.85 7.8
      vertex 111.5 0 7.8
      vertex 102.052 7.40472 7.8
    endloop
  endfacet
  facet normal -0 0 1
    outer loop
      vertex 101.456 6.37365 7.8
      vertex 111.5 0 7.8
      vertex 101.822 6.85 7.8
    endloop
  endfacet
  facet normal -0 0 1
    outer loop
      vertex 100.98 6.00814 7.8
      vertex 111.5 0 7.8
      vertex 101.456 6.37365 7.8
    endloop
  endfacet
  facet normal -0 0 1
    outer loop
      vertex 100.425 5.77837 7.8
      vertex 111.5 0 7.8
      vertex 100.98 6.00814 7.8
    endloop
  endfacet
  facet normal -0 0 1
    outer loop
      vertex 99.83 5.7 7.8
      vertex 111.5 0 7.8
      vertex 100.425 5.77837 7.8
    endloop
  endfacet
  facet normal 0 0 1
    outer loop
      vertex 99.2347 5.77837 7.8
      vertex 111.5 0 7.8
      vertex 99.83 5.7 7.8
    endloop
  endfacet
  facet normal 0 0 1
    outer loop
      vertex 49.7653 5.77837 7.8
      vertex 99.2347 5.77837 7.8
      vertex 98.68 6.00814 7.8
    endloop
  endfacet
  facet normal -0 0 1
    outer loop
      vertex 51.47 8 7.8
      vertex 97.6084 7.40472 7.8
      vertex 97.53 8 7.8
    endloop
  endfacet
  facet normal 0 0 1
    outer loop
      vertex 51.3916 7.40472 7.8
      vertex 97.6084 7.40472 7.8
      vertex 51.47 8 7.8
    endloop
  endfacet
  facet normal 0 0 1
    outer loop
      vertex 97.6084 7.40472 7.8
      vertex 51.3916 7.40472 7.8
      vertex 97.8381 6.85 7.8
    endloop
  endfacet
  facet normal 0 0 1
    outer loop
      vertex 51.1619 6.85 7.8
      vertex 97.8381 6.85 7.8
      vertex 51.3916 7.40472 7.8
    endloop
  endfacet
  facet normal 0 0 1
    outer loop
      vertex 97.8381 6.85 7.8
      vertex 51.1619 6.85 7.8
      vertex 98.2037 6.37365 7.8
    endloop
  endfacet
  facet normal 0 0 1
    outer loop
      vertex 50.7963 6.37365 7.8
      vertex 98.2037 6.37365 7.8
      vertex 51.1619 6.85 7.8
    endloop
  endfacet
  facet normal 0 0 1
    outer loop
      vertex 98.2037 6.37365 7.8
      vertex 50.7963 6.37365 7.8
      vertex 98.68 6.00814 7.8
    endloop
  endfacet
  facet normal 0 0 1
    outer loop
      vertex 50.32 6.00814 7.8
      vertex 98.68 6.00814 7.8
      vertex 50.7963 6.37365 7.8
    endloop
  endfacet
  facet normal 0 0 1
    outer loop
      vertex 49.7653 5.77837 7.8
      vertex 98.68 6.00814 7.8
      vertex 50.32 6.00814 7.8
    endloop
  endfacet
  facet normal 0 0 1
    outer loop
      vertex 99.2347 5.77837 7.8
      vertex 49.7653 5.77837 7.8
      vertex 111.5 0 7.8
    endloop
  endfacet
  facet normal 0 0 1
    outer loop
      vertex 37.5 0 7.8
      vertex 49.7653 5.77837 7.8
      vertex 49.17 5.7 7.8
    endloop
  endfacet
  facet normal 0 0 1
    outer loop
      vertex 37.5 12.49 7.8
      vertex 46.9484 7.40472 7.8
      vertex 46.87 8 7.8
    endloop
  endfacet
  facet normal 0 0 1
    outer loop
      vertex 37.5 0 7.8
      vertex 46.9484 7.40472 7.8
      vertex 37.5 12.49 7.8
    endloop
  endfacet
  facet normal 0 0 1
    outer loop
      vertex 46.9484 7.40472 7.8
      vertex 37.5 0 7.8
      vertex 47.1781 6.85 7.8
    endloop
  endfacet
  facet normal 0 0 1
    outer loop
      vertex 47.1781 6.85 7.8
      vertex 37.5 0 7.8
      vertex 47.5437 6.37365 7.8
    endloop
  endfacet
  facet normal 0 0 1
    outer loop
      vertex 49.7653 5.77837 7.8
      vertex 37.5 0 7.8
      vertex 111.5 0 7.8
    endloop
  endfacet
  facet normal 0 0 1
    outer loop
      vertex 48.5747 5.77837 7.8
      vertex 37.5 0 7.8
      vertex 49.17 5.7 7.8
    endloop
  endfacet
  facet normal 0 0 1
    outer loop
      vertex 48.02 6.00814 7.8
      vertex 37.5 0 7.8
      vertex 48.5747 5.77837 7.8
    endloop
  endfacet
  facet normal 0 0 1
    outer loop
      vertex 47.5437 6.37365 7.8
      vertex 37.5 0 7.8
      vertex 48.02 6.00814 7.8
    endloop
  endfacet
  facet normal 1 -0 0
    outer loop
      vertex 37.5 0 8
      vertex 37.5 12.49 7.8
      vertex 37.5 12.49 8
    endloop
  endfacet
  facet normal 1 0 0
    outer loop
      vertex 37.5 12.49 7.8
      vertex 37.5 0 8
      vertex 37.5 0 7.8
    endloop
  endfacet
  facet normal 0 -1 0
    outer loop
      vertex 37.5 12.49 7.8
      vertex 111.5 12.49 8
      vertex 37.5 12.49 8
    endloop
  endfacet
  facet normal 0 -1 -0
    outer loop
      vertex 111.5 12.49 8
      vertex 37.5 12.49 7.8
      vertex 111.5 12.49 7.8
    endloop
  endfacet
endsolid OpenSCAD_Model
